<svg
                    viewBox="0 0 25 24"
                    fill="none"
                    xmlns="http://www.w3.org/2000/svg">
                    <path
                      d="M4.46875 14L6.0434 20.2985C6.08768 20.4757 6.10982 20.5643 6.13602 20.6416C6.39192 21.3971 7.07227 21.9283 7.86727 21.9933C7.94865 22 8.03995 22 8.22254 22C8.45119 22 8.56552 22 8.66183 21.9906C9.61375 21.8983 10.3671 21.145 10.4594 20.193C10.4688 20.0967 10.4688 19.9824 10.4688 19.7538V5.49997M18.9688 13.5C20.9017 13.5 22.4688 11.933 22.4688 9.99997C22.4688 8.06698 20.9017 6.49997 18.9688 6.49997M10.7187 5.49997H6.96875C4.48347 5.49997 2.46875 7.51469 2.46875 9.99998C2.46875 12.4853 4.48347 14.5 6.96875 14.5H10.7188C12.4852 14.5 14.646 15.4469 16.313 16.3556C17.2856 16.8858 17.7718 17.1508 18.0903 17.1118C18.3856 17.0757 18.609 16.9431 18.7821 16.7011C18.9688 16.4401 18.9688 15.918 18.9688 14.8737V5.12626C18.9688 4.08197 18.9688 3.55982 18.7821 3.29886C18.609 3.05687 18.3856 2.92427 18.0903 2.8881C17.7718 2.84909 17.2856 3.11417 16.313 3.64433C14.646 4.55309 12.4852 5.49997 10.7187 5.49997Z"
                      stroke="currentColor"
                      strokeWidth="2"
                      strokeLinecap="round"
                      strokeLinejoin="round"
                    />
                  </svg>