<svg viewBox="0 0 20 20" fill="none" xmlns="http://www.w3.org/2000/svg">
<path d="M3.33268 6.66383C3.19601 6.6603 3.09676 6.65239 3.00753 6.63464C2.34638 6.50313 1.82955 5.9863 1.69804 5.32515C1.66602 5.16415 1.66602 4.97055 1.66602 4.58333C1.66602 4.19612 1.66602 4.00251 1.69804 3.84152C1.82955 3.18037 2.34638 2.66354 3.00753 2.53202C3.16853 2.5 3.36214 2.5 3.74935 2.5H16.2493C16.6366 2.5 16.8302 2.5 16.9912 2.53202C17.6523 2.66354 18.1691 3.18037 18.3007 3.84152C18.3327 4.00251 18.3327 4.19612 18.3327 4.58333C18.3327 4.97055 18.3327 5.16415 18.3007 5.32515C18.1691 5.9863 17.6523 6.50313 16.9912 6.63464C16.9019 6.65239 16.8027 6.6603 16.666 6.66383M8.33268 10.8333H11.666M3.33268 6.66667H16.666V13.5C16.666 14.9001 16.666 15.6002 16.3935 16.135C16.1538 16.6054 15.7714 16.9878 15.301 17.2275C14.7662 17.5 14.0661 17.5 12.666 17.5H7.33268C5.93255 17.5 5.23249 17.5 4.69771 17.2275C4.2273 16.9878 3.84485 16.6054 3.60517 16.135C3.33268 15.6002 3.33268 14.9001 3.33268 13.5V6.66667Z" stroke="currentColor" stroke-width="2" stroke-linecap="round" stroke-linejoin="round"/>
</svg>
