<svg xmlns="http://www.w3.org/2000/svg" width="24" height="24" viewBox="0 0 24 24"><title>flying-insect-ladybug</title><g fill="#111111"><defs></defs><circle class="cls-1" cx="12.022" cy="14.25" r="9" fill="none" stroke="#111111" stroke-linecap="round" stroke-linejoin="round" stroke-width="1.5px"></circle><path class="cls-1" d="M7.534 6.447C7.341 2.9 9.425 1.5 12.022 1.5S16.7 2.9 16.51 6.447" fill="none" stroke="#111111" stroke-linecap="round" stroke-linejoin="round" stroke-width="1.5px"></path><path class="cls-1" d="M9.074 2.354L8.272.75" fill="none" stroke="#111111" stroke-linecap="round" stroke-linejoin="round" stroke-width="1.5px"></path><path class="cls-1" d="M14.97 2.354L15.772.75" fill="none" stroke="#111111" stroke-linecap="round" stroke-linejoin="round" stroke-width="1.5px"></path><path class="cls-1" d="M12.022 5.25v18" fill="none" stroke="#111111" stroke-linecap="round" stroke-linejoin="round" stroke-width="1.5px"></path><circle class="cls-1" cx="12.022" cy="14.25" r="3" fill="none" stroke="#111111" stroke-linecap="round" stroke-linejoin="round" stroke-width="1.5px"></circle><path class="cls-1" d="M20.143 10.371A3 3 0 1 1 15.9 6.129" fill="none" stroke="#111111" stroke-linecap="round" stroke-linejoin="round" stroke-width="1.5px"></path><path class="cls-1" d="M15.9 22.371a3 3 0 1 1 4.242-4.242" fill="none" stroke="#111111" stroke-linecap="round" stroke-linejoin="round" stroke-width="1.5px"></path><path class="cls-1" d="M8.143 6.129A3 3 0 0 1 3.9 10.371" fill="none" stroke="#111111" stroke-linecap="round" stroke-linejoin="round" stroke-width="1.5px"></path><path class="cls-1" d="M3.9 18.129a3 3 0 0 1 4.242 4.242" fill="none" stroke="#111111" stroke-linecap="round" stroke-linejoin="round" stroke-width="1.5px"></path><path class="cls-1" d="M18.463 20.536L19.44 22a2.8 2.8 0 0 0 2.332 1.248" fill="none" stroke="#111111" stroke-linecap="round" stroke-linejoin="round" stroke-width="1.5px"></path><path class="cls-1" d="M18.754 8.277l.686-1.029A2.8 2.8 0 0 1 21.772 6" fill="none" stroke="#111111" stroke-linecap="round" stroke-linejoin="round" stroke-width="1.5px"></path><path class="cls-1" d="M20.76 12.087l2.512-.837" fill="none" stroke="#111111" stroke-linecap="round" stroke-linejoin="round" stroke-width="1.5px"></path><path class="cls-1" d="M20.562 17.097l2.71.903" fill="none" stroke="#111111" stroke-linecap="round" stroke-linejoin="round" stroke-width="1.5px"></path><path class="cls-1" d="M5.581 20.536L4.6 22a2.8 2.8 0 0 1-2.328 1.25" fill="none" stroke="#111111" stroke-linecap="round" stroke-linejoin="round" stroke-width="1.5px"></path><path class="cls-1" d="M5.29 8.277L4.6 7.248A2.8 2.8 0 0 0 2.272 6" fill="none" stroke="#111111" stroke-linecap="round" stroke-linejoin="round" stroke-width="1.5px"></path><path class="cls-1" d="M3.284 12.087L.772 11.25" fill="none" stroke="#111111" stroke-linecap="round" stroke-linejoin="round" stroke-width="1.5px"></path><path class="cls-1" d="M3.481 17.097L.772 18" fill="none" stroke="#111111" stroke-linecap="round" stroke-linejoin="round" stroke-width="1.5px"></path></g></svg>