<svg fill="none" viewBox="0 0 16 17" xmlns="http://www.w3.org/2000/svg"><path d="m8.12598 15.7863c1.85937 0 3.38382-.6905 4.38862-1.8867l.875.7382c.2461.212.5743.2393.7725-.0136.2051-.2461.1367-.5674-.1094-.7793l-.9502-.793c.458-.8477.7246-1.8594.7383-3.001h1.1074c.335 0 .5538-.20505.5538-.51267 0-.31445-.2188-.51953-.5538-.51953h-1.1621c-.1093-.85449-.3759-1.69531-.7724-2.44727l1.039-.86816c.2461-.20508.3213-.52637.1162-.77246-.205-.24609-.5263-.22559-.7793-.01367l-.9228.77246c-.2598-.3418-.5469-.66309-.8545-.93652-.0137-1.06641-.499-1.88672-1.3262-2.37207l-.0615-.29395c-.0547-.21875.0479-.3623.3281-.45117l.4307-.16406c.6562-.18457.335-1.16895-.335-.936528l-.5127.205078c-.60836.21875-.91597.64941-.88179 1.23731-.34864-.08204-.72461-.12305-1.12793-.12305s-.7793.04101-1.12793.12305c.03418-.5879-.27344-1.01856-.88184-1.23731l-.51269-.205078c-.66993-.232422-.99122.751958-.33497.936528l.43067.16406c.28027.08887.38281.23242.32812.45117l-.06152.29395c-.82715.49218-1.3125 1.30566-1.32617 2.3789-.30762.27344-.59473.58789-.84766.93652l-.92969-.77929c-.25292-.21192-.57421-.23242-.77929.01367s-.12989.56738.11621.77246l1.03906.86816c-.39648.75196-.66308 1.58594-.77246 2.44727h-1.16211c-.33496 0-.55371.20508-.55371.51953 0 .30762.21875.51267.55371.51267h1.10742c.01367 1.1416.28028 2.1533.73828 3.001l-.95019.793c-.2461.2119-.31445.5332-.10938.7793.19825.2529.52637.2256.77246.0136l.875-.7314c1.00489 1.1894 2.5293 1.8799 4.38868 1.8799zm0-9.46096c1.13476 0 2.26952-.21191 3.02152-.54004.8066.85449 1.6406 2.31738 1.6406 4.12207 0 2.74803-1.6817 4.62793-4.24513 4.81253v-7.16409c0-.23926-.19824-.4375-.44434-.4375-.23925 0-.4375.19824-.4375.4375v7.15719c-2.53613-.1982-4.19726-2.0713-4.19726-4.80563 0-1.80469.82031-3.26074 1.64062-4.12207.75196.32813 1.88672.54004 3.02149.54004zm-2.07129 2.25586c.45801 0 .82715-.37598.82715-.82715s-.36914-.82715-.82715-.82715c-.45117 0-.82031.37598-.82031.82715s.36914.82715.82031.82715zm4.14261 0c.4511 0 .8203-.37598.8203-.82715s-.3692-.82715-.8203-.82715c-.45804 0-.82718.37598-.82718.82715s.36914.82715.82718.82715zm-4.91507 2.5703c.52636 0 .95703-.4307.95703-.9639 0-.52632-.43067-.95699-.95703-.95699-.53321 0-.96387.43067-.96387.95699 0 .5332.43066.9639.96387.9639zm5.68747 0c.5332 0 .9639-.4307.9639-.9639 0-.52632-.4307-.95699-.9639-.95699-.5263 0-.957.43067-.957.95699 0 .5332.4307.9639.957.9639zm-4.91501 2.2149c.42383 0 .76562-.3418.76562-.7588 0-.4239-.34179-.7657-.76562-.7657-.41699 0-.75879.3418-.75879.7657 0 .417.3418.7588.75879.7588zm4.14261 0c.417 0 .7588-.3418.7588-.7588 0-.4239-.3418-.7657-.7588-.7657-.42386 0-.76566.3418-.76566.7657 0 .417.3418.7588.76566.7588z" fill="currentColor"></path></svg>