<svg width="28" height="28" viewBox="0 0 28 28" fill="none" xmlns="http://www.w3.org/2000/svg">
<path d="M16.1416 4.66675H7.93398C5.9738 4.66675 4.99371 4.66675 4.24502 5.04823C3.58645 5.38378 3.05102 5.91921 2.71546 6.57778C2.33398 7.32647 2.33398 8.30656 2.33398 10.2667V17.7334C2.33398 19.6936 2.33398 20.6737 2.71546 21.4224C3.05102 22.081 3.58645 22.6164 4.24502 22.9519C4.99371 23.3334 5.9738 23.3334 7.93398 23.3334H20.0673C22.0275 23.3334 23.0076 23.3334 23.7563 22.9519C24.4149 22.6164 24.9503 22.081 25.2858 21.4224C25.6673 20.6737 25.6673 19.6936 25.6673 17.7334V11.6667M2.33398 8.16675L11.8597 14.8348C12.6311 15.3747 13.0168 15.6447 13.4363 15.7493C13.8069 15.8416 14.1944 15.8416 14.565 15.7493C14.9845 15.6447 15.3702 15.3747 16.1416 14.8348L20.0673 11.6667" stroke="currentColor" stroke-width="2" stroke-linecap="round" stroke-linejoin="round"/>
<path d="M22.334 8.16675C22.334 8.71903 22.7817 9.16675 23.334 9.16675C23.8863 9.16675 24.334 8.71903 24.334 8.16675H22.334ZM24.334 1.16675C24.334 0.614463 23.8863 0.166748 23.334 0.166748C22.7817 0.166748 22.334 0.614463 22.334 1.16675H24.334ZM19.834 3.66675C19.2817 3.66675 18.834 4.11446 18.834 4.66675C18.834 5.21903 19.2817 5.66675 19.834 5.66675V3.66675ZM26.834 5.66675C27.3863 5.66675 27.834 5.21903 27.834 4.66675C27.834 4.11446 27.3863 3.66675 26.834 3.66675V5.66675ZM24.334 8.16675V1.16675H22.334V8.16675H24.334ZM19.834 5.66675H26.834V3.66675H19.834V5.66675Z" fill="currentColor"/>
</svg>
