<svg width="24" height="24" viewBox="0 0 24 24" fill="none" xmlns="http://www.w3.org/2000/svg">
<path d="M14.9995 9H15.0095M8.99951 9H9.00951M21.9995 12C21.9995 17.5228 17.5224 22 11.9995 22C6.47666 22 1.99951 17.5228 1.99951 12C1.99951 6.47715 6.47666 2 11.9995 2C17.5224 2 21.9995 6.47715 21.9995 12ZM15.4995 9C15.4995 9.27614 15.2757 9.5 14.9995 9.5C14.7234 9.5 14.4995 9.27614 14.4995 9C14.4995 8.72386 14.7234 8.5 14.9995 8.5C15.2757 8.5 15.4995 8.72386 15.4995 9ZM9.49951 9C9.49951 9.27614 9.27565 9.5 8.99951 9.5C8.72337 9.5 8.49951 9.27614 8.49951 9C8.49951 8.72386 8.72337 8.5 8.99951 8.5C9.27565 8.5 9.49951 8.72386 9.49951 9ZM11.9995 17.5C14.5 17.5 16.4995 15.667 16.4995 14H7.49951C7.49951 15.667 9.49901 17.5 11.9995 17.5Z" stroke="#94A3B8" stroke-width="1.97624" stroke-linecap="round" stroke-linejoin="round"/>
</svg>
