<svg viewBox="0 0 24 24" fill="none" xmlns="http://www.w3.org/2000/svg"><path fill-rule="evenodd" clip-rule="evenodd" d="M0.888672 12.0118C0.888672 17.5059 4.90124 22.074 10.1484 23L10.2104 22.9505C10.1897 22.9465 10.1691 22.9424 10.1485 22.9383V15.0984H7.37054V12.0118H10.1485V9.5425C10.1485 6.76457 11.9387 5.22127 14.4697 5.22127C15.2722 5.22127 16.1365 5.34474 16.939 5.4682V8.30786H15.5191C14.161 8.30786 13.8524 8.98691 13.8524 9.85116V12.0118H16.8155L16.3217 15.0984H13.8524V22.9383C13.8317 22.9424 13.8111 22.9465 13.7904 22.9505L13.8524 23C19.0996 22.074 23.1121 17.5059 23.1121 12.0118C23.1121 5.9003 18.1119 0.900024 12.0004 0.900024C5.88895 0.900024 0.888672 5.9003 0.888672 12.0118Z" fill="currentColor"></path></svg>