<svg viewBox="0 0 24 24" fill="none" xmlns="http://www.w3.org/2000/svg"><path fill-rule="evenodd" clip-rule="evenodd" d="M3.41961 2C2.63558 2 2 2.63558 2 3.41961V20.5804C2 21.3644 2.63558 22 3.41961 22H20.5804C21.3644 22 22 21.3644 22 20.5804V3.41961C22 2.63558 21.3644 2 20.5804 2H3.41961ZM6.48908 8.21103C7.44729 8.21103 8.22408 7.43424 8.22408 6.47603C8.22408 5.51781 7.44729 4.74102 6.48908 4.74102C5.53087 4.74102 4.75409 5.51781 4.75409 6.47603C4.75409 7.43424 5.53087 8.21103 6.48908 8.21103ZM9.81304 9.49324H12.6885V10.8105C12.6885 10.8105 13.4688 9.24991 15.5918 9.24991C17.4857 9.24991 19.0546 10.1829 19.0546 13.0266V19.0233H16.0748V13.7533C16.0748 12.0757 15.1792 11.8912 14.4967 11.8912C13.0804 11.8912 12.8379 13.1129 12.8379 13.9721V19.0233H9.81304V9.49324ZM8.00152 9.49325H4.97664V19.0233H8.00152V9.49325Z" fill="currentColor"></path></svg>