<svg viewBox="0 0 16 16" fill="none" xmlns="http://www.w3.org/2000/svg" ><path d="M4.57422 13.012C4.74512 13.012 4.92285 12.9504 5.08691 12.8479L5.42188 12.6223C6.31738 12.0208 7.62305 10.6672 7.86914 9.98364H7.88965C8.12891 10.6604 9.43457 12.0208 10.3301 12.6223L10.665 12.8479C10.8291 12.9504 11.0068 13.012 11.1777 13.012C11.5264 13.012 11.752 12.7727 11.752 12.4446C11.752 12.2395 11.6494 12.0344 11.4648 11.9182L10.9521 11.5901C10.0498 10.9954 8.4707 9.49829 8.4707 7.95337V5.54028H9.40723C9.87891 5.54028 10.002 5.20532 9.74219 4.83618L8.25879 2.73071C8.04688 2.4231 7.71875 2.4231 7.5 2.73071L6.0166 4.82935C5.74316 5.20532 5.87305 5.54028 6.35156 5.54028H7.28809V7.95337C7.28809 9.49829 5.70215 10.9885 4.80664 11.5901L4.29395 11.9182C4.10254 12.0413 4 12.2463 4 12.4514C4 12.759 4.22559 13.012 4.57422 13.012Z" fill="currentColor"></path></svg>