<svg width="28" height="28" viewBox="0 0 28 28" fill="none" xmlns="http://www.w3.org/2000/svg">
<path d="M24.0408 7.70711C24.4313 7.31658 24.4313 6.68342 24.0408 6.29289C23.6502 5.90237 23.0171 5.90237 22.6266 6.29289L24.0408 7.70711ZM10.5003 19.8333L9.79322 20.5404C10.1837 20.931 10.8169 20.931 11.2074 20.5404L10.5003 19.8333ZM5.3741 13.2929C4.98357 12.9024 4.35041 12.9024 3.95989 13.2929C3.56936 13.6834 3.56936 14.3166 3.95989 14.7071L5.3741 13.2929ZM22.6266 6.29289L9.79322 19.1262L11.2074 20.5404L24.0408 7.70711L22.6266 6.29289ZM11.2074 19.1262L5.3741 13.2929L3.95989 14.7071L9.79322 20.5404L11.2074 19.1262Z" fill="currentColor"/>
</svg>
