<svg
                    viewBox="0 0 25 24"
                    fill="none"
                    xmlns="http://www.w3.org/2000/svg">
                    <path
                      d="M14.5592 6.72222H20.5129C20.9851 6.72222 21.2211 6.72222 21.3592 6.82149C21.4796 6.9081 21.5581 7.04141 21.5753 7.18877C21.595 7.35767 21.4804 7.56403 21.2511 7.97677L19.8302 10.5343C19.747 10.684 19.7055 10.7589 19.6892 10.8381C19.6747 10.9083 19.6747 10.9806 19.6892 11.0508C19.7055 11.13 19.747 11.2049 19.8302 11.3545L21.2511 13.9121C21.4804 14.3248 21.595 14.5312 21.5753 14.7001C21.5581 14.8475 21.4796 14.9808 21.3592 15.0674C21.2211 15.1667 20.9851 15.1667 20.5129 15.1667H13.0814C12.4902 15.1667 12.1946 15.1667 11.9688 15.0516C11.7702 14.9504 11.6087 14.7889 11.5075 14.5903C11.3925 14.3645 11.3925 14.0689 11.3925 13.4778V10.9444M7.69805 21.5L3.47583 4.61111M5.0592 10.9444H12.8703C13.4614 10.9444 13.757 10.9444 13.9828 10.8294C14.1814 10.7282 14.3429 10.5667 14.4441 10.3681C14.5592 10.1423 14.5592 9.84672 14.5592 9.25556V4.18889C14.5592 3.59772 14.5592 3.30214 14.4441 3.07634C14.3429 2.87773 14.1814 2.71625 13.9828 2.61505C13.757 2.5 13.4614 2.5 12.8703 2.5H5.11112C4.37379 2.5 4.00513 2.5 3.75297 2.65278C3.53197 2.78668 3.36776 2.99699 3.29146 3.24387C3.20441 3.52555 3.29383 3.88321 3.47266 4.59852L5.0592 10.9444Z"
                      stroke="currentColor"
                      strokeWidth="2"
                      strokeLinecap="round"
                      strokeLinejoin="round"
                    />
                  </svg>