<svg viewBox="0 0 20 20" fill="none" xmlns="http://www.w3.org/2000/svg">
<path d="M6.97967 13.0138L2.26562 17.7279M9.74441 5.53507L8.44367 6.83581C8.33757 6.94191 8.28452 6.99496 8.22407 7.03712C8.17042 7.07453 8.11255 7.10551 8.05166 7.12939C7.98306 7.1563 7.90949 7.17101 7.76235 7.20044L4.70863 7.81118C3.91504 7.9699 3.51825 8.04926 3.33262 8.25847C3.1709 8.44073 3.09705 8.68464 3.13051 8.92599C3.16891 9.20304 3.45505 9.48917 4.02731 10.0614L9.93209 15.9662C10.5044 16.5385 10.7905 16.8246 11.0675 16.863C11.3089 16.8965 11.5528 16.8226 11.7351 16.6609C11.9443 16.4753 12.0236 16.0785 12.1823 15.2849L12.7931 12.2312C12.8225 12.084 12.8372 12.0105 12.8641 11.9419C12.888 11.881 12.919 11.8231 12.9564 11.7695C12.9986 11.709 13.0516 11.656 13.1577 11.5499L14.4585 10.2491C14.5263 10.1813 14.5602 10.1474 14.5975 10.1177C14.6306 10.0914 14.6657 10.0677 14.7024 10.0467C14.7438 10.0231 14.7879 10.0042 14.876 9.9664L16.9547 9.07555C17.5611 8.81566 17.8643 8.68572 18.002 8.47573C18.1225 8.2921 18.1656 8.06835 18.1219 7.85312C18.072 7.607 17.8388 7.37374 17.3723 6.90722L13.0863 2.62127C12.6198 2.15475 12.3865 1.92149 12.1404 1.8716C11.9252 1.82797 11.7014 1.87106 11.5178 1.9915C11.3078 2.12923 11.1779 2.43244 10.918 3.03886L10.0271 5.11749C9.98934 5.20567 9.97044 5.24976 9.94682 5.2911C9.92584 5.32783 9.90209 5.36291 9.87578 5.39603C9.84617 5.43331 9.81225 5.46723 9.74441 5.53507Z" stroke="currentColor" stroke-width="2" stroke-linecap="round" stroke-linejoin="round"/>
</svg>
