 <svg
                
                viewBox="0 0 12 12"
                fill="none"
                xmlns="http://www.w3.org/2000/svg">
                <g clipPath="url(#clip0_1380_17979)">
                  <path
                    d="M4.1878 7.80821L1.35938 10.6366M5.84665 3.32097L5.0662 4.10141C5.00254 4.16507 4.97071 4.1969 4.93444 4.2222C4.90225 4.24465 4.86753 4.26323 4.831 4.27756C4.78983 4.29371 4.74569 4.30253 4.65741 4.32019L2.82518 4.68664C2.34903 4.78187 2.11095 4.82948 1.99957 4.95501C1.90254 5.06436 1.85823 5.21071 1.8783 5.35552C1.90135 5.52175 2.07303 5.69343 2.41639 6.03679L5.95925 9.57966C6.30261 9.92301 6.47429 10.0947 6.64052 10.1177C6.78533 10.1378 6.93168 10.0935 7.04103 9.99647C7.16656 9.88509 7.21417 9.64701 7.3094 9.17086L7.67585 7.33863C7.69351 7.25035 7.70234 7.20621 7.71848 7.16504C7.73281 7.12851 7.75139 7.09379 7.77384 7.0616C7.79914 7.02533 7.83097 6.9935 7.89463 6.92984L8.67507 6.1494C8.71578 6.10869 8.73613 6.08834 8.7585 6.07057C8.77837 6.05479 8.79942 6.04054 8.82145 6.02795C8.84626 6.01378 8.87271 6.00244 8.92562 5.97976L10.1728 5.44526C10.5367 5.28932 10.7186 5.21136 10.8012 5.08536C10.8735 4.97519 10.8993 4.84094 10.8732 4.7118C10.8432 4.56413 10.7033 4.42417 10.4234 4.14426L7.85178 1.57269C7.57187 1.29278 7.43191 1.15282 7.28424 1.12288C7.1551 1.09671 7.02086 1.12256 6.91068 1.19483C6.78469 1.27746 6.70672 1.45939 6.55078 1.82324L6.01628 3.07042C5.9936 3.12333 5.98226 3.14978 5.96809 3.17459C5.9555 3.19662 5.94125 3.21767 5.92547 3.23754C5.9077 3.25991 5.88735 3.28027 5.84665 3.32097Z"
                    stroke="currentColor"
                    strokeWidth="1.5"
                    strokeLinecap="round"
                    strokeLinejoin="round"
                  />
                </g>
                <defs>
                  <clipPath id="clip0_1380_17979">
                    <rect width="12" height="12" fill="white" />
                  </clipPath>
                </defs>
              </svg>