<svg width="192" height="66" viewBox="0 0 192 66" fill="none" xmlns="http://www.w3.org/2000/svg">
<path d="M33.1388 41.5608L27.854 32.4074L27.5739 31.9224L26.8351 30.6418L26.0956 31.9224L25.8155 32.4074L16.3731 48.7622L16.2793 48.9241L16.0332 49.3505L16.2799 49.7776L16.3731 49.9389L21.6578 59.0922L21.9373 59.5778L22.6768 60.8578L23.4162 59.5778L23.6963 59.0922L33.1388 42.7374L33.232 42.5756L33.4786 42.1491L33.232 41.722L33.1388 41.5608Z" fill="#84D5F7"/>
<path d="M24.8805 31.3393L25.6199 30.0593H24.1416H23.5814H4.63618H4.07593H2.59766L3.33709 31.3393L3.61722 31.8249L13.0895 48.2317L13.3696 48.7166L14.1085 49.9972L14.8479 48.7166L15.128 48.2317L24.6004 31.8249L24.8805 31.3393Z" fill="#438CCB"/>
<path d="M4.76959 28.716H14.2419H14.8021H16.2804L15.541 27.4354L15.2609 26.9504L10.525 18.7468L10.2449 18.2618L9.50545 16.9812L8.76661 18.2618L8.48648 18.7468L3.75003 26.9504L3.4699 27.4354L2.73047 28.716H4.20934H4.76959Z" fill="#84D5F7"/>
<path d="M13.3027 20.869L17.4933 28.1272L17.5871 28.2891L17.8331 28.7161H18.3259H18.5128H22.8849H23.0713H23.5641L23.8107 28.2891L23.9039 28.1278L29.1343 19.0682L29.2281 18.9064L29.4742 18.4799L29.2281 18.0528L29.1343 17.891L22.7577 6.84662L22.4776 6.36103L21.7382 5.08105L20.9993 6.36103L20.7192 6.84662L13.3027 19.6918L13.209 19.8536L12.9629 20.2807L13.209 20.7072L13.3027 20.869Z" fill="#55A6D7"/>
<path d="M41.855 30.0593H41.2948H30.088H29.5277H28.0488L28.7883 31.3393L29.0684 31.8249L34.6721 41.5301L34.9522 42.0151L35.6911 43.2957L36.4305 42.0151L36.7106 41.5301L42.3137 31.8249L42.5939 31.3393L43.3333 30.0593H41.855Z" fill="#55A6D7"/>
<path d="M25.8541 27.4354L25.1152 28.716H26.5935H27.1538H41.1618H41.7221H43.201L42.4615 27.4354L42.1814 26.9504L35.1771 14.8184L34.8969 14.3334L34.1581 13.0535L33.4187 14.3334L33.1385 14.8184L26.1342 26.9504L25.8541 27.4354Z" fill="#62BFEC"/>
<path d="M34.1568 9.11071L30.2488 15.8803L21.7369 1.13818L12.6612 16.8581L12.1834 17.6811L9.50277 13.039L0 29.5055L14.1084 53.9404L15.257 51.9508L22.6764 64.8013L34.2542 44.7494L35.6918 47.2394L45.931 29.5055L34.1568 9.11071ZM41.7698 31.5088L35.6912 42.0395L29.1372 30.6911H42.2452L41.7674 31.5142L41.7698 31.5088ZM3.81903 28.0882L4.29685 27.2651L9.50814 18.2384L15.1949 28.0882H3.81903ZM23.2003 28.0882H18.1944L13.6873 20.2811L21.7369 6.33813L28.7478 18.4803L23.2003 28.0882ZM24.5316 30.6881L14.1084 48.741L3.68583 30.6881H24.5316ZM26.8347 31.8988L32.7526 42.1494L22.6764 59.6014L16.7586 49.3514L26.8347 31.8988ZM33.682 15.1331L34.1598 14.3101L42.112 28.0882H26.2022L33.682 15.1331Z" fill="#002C3B"/>
<path d="M58.0379 46.6034C57.4796 46.6034 57.0329 46.4778 56.6979 46.2265C56.3628 45.9753 56.1674 45.6403 56.1116 45.2215C56.0557 44.8027 56.1395 44.3281 56.3628 43.7976L67.7117 18.3361C67.9909 17.666 68.3398 17.1914 68.7586 16.9122C69.2053 16.633 69.6939 16.4934 70.2243 16.4934C70.7269 16.4934 71.1875 16.633 71.6063 16.9122C72.053 17.1914 72.4159 17.666 72.6951 18.3361L84.0439 43.7976C84.2952 44.3281 84.3929 44.8167 84.3371 45.2634C84.2812 45.6821 84.0998 46.0172 83.7927 46.2684C83.4856 46.4918 83.0528 46.6034 82.4945 46.6034C81.8803 46.6034 81.3917 46.4499 81.0288 46.1428C80.6658 45.8357 80.3448 45.3611 80.0656 44.719L77.1341 37.9348L79.1024 39.1074H61.2625L63.1889 37.9348L60.2993 44.719C60.0201 45.389 59.713 45.8776 59.378 46.1847C59.043 46.4639 58.5963 46.6034 58.0379 46.6034ZM70.1406 21.6025L63.8171 36.5947L62.7701 35.5896H77.5529L76.5897 36.5947L70.2243 21.6025H70.1406ZM95.1553 46.6872C92.9776 46.6872 91.3304 46.059 90.2137 44.8027C89.1249 43.5185 88.5805 41.6758 88.5805 39.2749V18.6292C88.5805 17.9312 88.7619 17.4008 89.1249 17.0378C89.4878 16.6749 90.0043 16.4934 90.6743 16.4934C91.3444 16.4934 91.8609 16.6749 92.2238 17.0378C92.6147 17.4008 92.8101 17.9312 92.8101 18.6292V39.0236C92.8101 40.4195 93.0893 41.4665 93.6477 42.1644C94.2339 42.8345 95.0715 43.1695 96.1603 43.1695C96.4116 43.1695 96.6349 43.1695 96.8304 43.1695C97.0258 43.1416 97.2212 43.1136 97.4166 43.0857C97.7517 43.0578 97.989 43.1555 98.1286 43.3789C98.2682 43.5743 98.338 43.9931 98.338 44.6352C98.338 45.2215 98.2123 45.6821 97.9611 46.0172C97.7098 46.3243 97.305 46.5197 96.7466 46.6034C96.4953 46.6314 96.2301 46.6453 95.9509 46.6453C95.6717 46.6732 95.4065 46.6872 95.1553 46.6872ZM109.642 46.6872C107.967 46.6872 106.557 46.3941 105.412 45.8078C104.267 45.2215 103.416 44.356 102.857 43.2114C102.299 42.0667 102.02 40.6708 102.02 39.0236V29.1405H99.5073C98.9489 29.1405 98.5161 29.0009 98.209 28.7217C97.9019 28.4146 97.7484 28.0098 97.7484 27.5072C97.7484 26.9768 97.9019 26.572 98.209 26.2928C98.5161 26.0136 98.9489 25.874 99.5073 25.874H102.02V21.5606C102.02 20.8627 102.201 20.3322 102.564 19.9693C102.955 19.6063 103.486 19.4249 104.156 19.4249C104.826 19.4249 105.342 19.6063 105.705 19.9693C106.068 20.3322 106.25 20.8627 106.25 21.5606V25.874H111.149C111.708 25.874 112.14 26.0136 112.447 26.2928C112.755 26.572 112.908 26.9768 112.908 27.5072C112.908 28.0098 112.755 28.4146 112.447 28.7217C112.14 29.0009 111.708 29.1405 111.149 29.1405H106.25V38.6886C106.25 40.1683 106.557 41.285 107.171 42.0388C107.813 42.7926 108.846 43.1695 110.27 43.1695C110.772 43.1695 111.205 43.1276 111.568 43.0438C111.959 42.9322 112.28 42.8624 112.531 42.8345C112.838 42.8345 113.09 42.9461 113.285 43.1695C113.48 43.3649 113.578 43.7558 113.578 44.3421C113.578 44.7608 113.494 45.1517 113.327 45.5146C113.187 45.8776 112.922 46.1149 112.531 46.2265C112.196 46.3382 111.736 46.4359 111.149 46.5197C110.591 46.6314 110.088 46.6872 109.642 46.6872ZM124.9 46.6872C122.834 46.6872 121.047 46.2545 119.539 45.389C118.06 44.5235 116.901 43.2951 116.064 41.7038C115.226 40.1124 114.807 38.2419 114.807 36.0922C114.807 34.445 115.045 32.9793 115.519 31.695C115.994 30.4108 116.664 29.308 117.529 28.3867C118.423 27.4375 119.484 26.7255 120.712 26.2509C121.968 25.7484 123.364 25.4971 124.9 25.4971C126.938 25.4971 128.697 25.9299 130.176 26.7953C131.684 27.6608 132.857 28.8892 133.694 30.4806C134.532 32.044 134.95 33.9145 134.95 36.0922C134.95 37.7114 134.713 39.1771 134.239 40.4893C133.764 41.8015 133.08 42.9182 132.187 43.8395C131.321 44.7608 130.26 45.4728 129.004 45.9753C127.775 46.4499 126.407 46.6872 124.9 46.6872ZM124.9 43.4207C126.044 43.4207 127.05 43.1416 127.915 42.5832C128.78 42.0248 129.451 41.2012 129.925 40.1124C130.428 39.0236 130.679 37.6835 130.679 36.0922C130.679 33.6912 130.148 31.8765 129.088 30.6481C128.027 29.4197 126.631 28.8055 124.9 28.8055C123.727 28.8055 122.708 29.0846 121.843 29.643C120.977 30.1735 120.293 30.9831 119.791 32.0719C119.316 33.1607 119.079 34.5008 119.079 36.0922C119.079 38.4652 119.609 40.2799 120.67 41.5363C121.731 42.7926 123.141 43.4207 124.9 43.4207ZM148.956 54.2252C147.448 54.2252 145.982 54.0716 144.558 53.7645C143.162 53.4574 141.892 52.9549 140.748 52.2569C140.329 52.0336 140.05 51.7544 139.91 51.4194C139.77 51.1123 139.729 50.7912 139.784 50.4562C139.868 50.1212 140.022 49.828 140.245 49.5768C140.468 49.3255 140.734 49.158 141.041 49.0742C141.376 48.9905 141.725 49.0463 142.088 49.2417C143.316 49.9118 144.475 50.3585 145.563 50.5818C146.68 50.8331 147.713 50.9587 148.662 50.9587C150.617 50.9587 152.082 50.4562 153.06 49.4511C154.037 48.474 154.525 47.0222 154.525 45.0959V40.8243H154.902C154.483 42.3598 153.604 43.5743 152.264 44.4677C150.924 45.3611 149.374 45.8078 147.615 45.8078C145.773 45.8078 144.168 45.389 142.8 44.5514C141.432 43.686 140.371 42.4994 139.617 40.9918C138.863 39.4563 138.486 37.6696 138.486 35.6315C138.486 34.096 138.696 32.714 139.114 31.4856C139.561 30.2572 140.175 29.1963 140.957 28.3029C141.767 27.4095 142.73 26.7255 143.846 26.2509C144.991 25.7484 146.247 25.4971 147.615 25.4971C149.402 25.4971 150.952 25.9438 152.264 26.8372C153.604 27.7306 154.469 28.945 154.86 30.4806L154.442 31.1925V27.7166C154.442 27.0187 154.623 26.4882 154.986 26.1253C155.377 25.7623 155.893 25.5809 156.535 25.5809C157.205 25.5809 157.722 25.7623 158.085 26.1253C158.448 26.4882 158.629 27.0187 158.629 27.7166V44.5933C158.629 47.776 157.806 50.177 156.159 51.7963C154.511 53.4155 152.11 54.2252 148.956 54.2252ZM148.621 42.4994C149.849 42.4994 150.896 42.2203 151.761 41.6619C152.627 41.1035 153.297 40.3078 153.771 39.2749C154.246 38.2419 154.483 37.0274 154.483 35.6315C154.483 33.5376 153.953 31.8765 152.892 30.6481C151.859 29.4197 150.435 28.8055 148.621 28.8055C147.42 28.8055 146.387 29.0846 145.522 29.643C144.656 30.2014 143.972 30.9971 143.47 32.03C142.995 33.0351 142.758 34.2356 142.758 35.6315C142.758 37.7533 143.288 39.4284 144.349 40.6568C145.41 41.8852 146.834 42.4994 148.621 42.4994ZM166.659 46.5616C165.989 46.5616 165.473 46.3661 165.11 45.9753C164.747 45.5565 164.565 44.9842 164.565 44.2583V27.926C164.565 27.2001 164.747 26.6418 165.11 26.2509C165.473 25.8601 165.989 25.6646 166.659 25.6646C167.329 25.6646 167.846 25.8601 168.209 26.2509C168.6 26.6418 168.795 27.2001 168.795 27.926V44.2583C168.795 44.9842 168.614 45.5565 168.251 45.9753C167.888 46.3661 167.357 46.5616 166.659 46.5616ZM166.659 21.3094C165.822 21.3094 165.166 21.1 164.691 20.6812C164.244 20.2624 164.021 19.6761 164.021 18.9223C164.021 18.1406 164.244 17.5543 164.691 17.1635C165.166 16.7447 165.822 16.5353 166.659 16.5353C167.497 16.5353 168.139 16.7447 168.586 17.1635C169.06 17.5543 169.298 18.1406 169.298 18.9223C169.298 19.6761 169.06 20.2624 168.586 20.6812C168.139 21.1 167.497 21.3094 166.659 21.3094ZM183.752 46.6872C181.658 46.6872 179.844 46.2545 178.308 45.389C176.801 44.4956 175.628 43.2532 174.79 41.6619C173.953 40.0426 173.534 38.1442 173.534 35.9665C173.534 34.3473 173.771 32.8955 174.246 31.6113C174.721 30.2991 175.391 29.1963 176.256 28.3029C177.15 27.4095 178.224 26.7255 179.481 26.2509C180.765 25.7484 182.189 25.4971 183.752 25.4971C184.729 25.4971 185.748 25.6507 186.809 25.9578C187.898 26.237 188.903 26.7116 189.825 27.3816C190.187 27.605 190.411 27.8841 190.495 28.2192C190.606 28.5263 190.62 28.8473 190.536 29.1824C190.481 29.5174 190.327 29.8105 190.076 30.0618C189.852 30.2851 189.573 30.4247 189.238 30.4806C188.903 30.5085 188.54 30.4108 188.149 30.1874C187.479 29.7128 186.795 29.3778 186.097 29.1824C185.399 28.959 184.729 28.8473 184.087 28.8473C183.082 28.8473 182.189 29.0148 181.407 29.3499C180.653 29.657 180.011 30.1176 179.481 30.7318C178.95 31.3181 178.545 32.058 178.266 32.9513C178.015 33.8447 177.889 34.8638 177.889 36.0084C177.889 38.2977 178.42 40.0985 179.481 41.4106C180.57 42.6949 182.105 43.337 184.087 43.337C184.729 43.337 185.399 43.2393 186.097 43.0438C186.795 42.8484 187.479 42.5134 188.149 42.0388C188.54 41.8154 188.903 41.7317 189.238 41.7875C189.573 41.8434 189.838 41.9969 190.034 42.2482C190.257 42.4715 190.397 42.7507 190.453 43.0857C190.536 43.3928 190.522 43.7139 190.411 44.0489C190.299 44.3839 190.062 44.6631 189.699 44.8865C188.806 45.5286 187.828 45.9892 186.767 46.2684C185.734 46.5476 184.729 46.6872 183.752 46.6872Z" fill="black"/>
</svg>
