<svg width="37" height="51" viewBox="0 0 37 51" fill="none" xmlns="http://www.w3.org/2000/svg">
<path d="M26.2343 32.0012L22.0505 24.7548L21.8288 24.3708L21.2439 23.3571L20.6585 24.3708L20.4367 24.7548L12.9614 37.7023L12.8872 37.8305L12.6924 38.1681L12.8877 38.5062L12.9614 38.6339L17.1452 45.8803L17.3665 46.2647L17.9519 47.278L18.5373 46.2647L18.759 45.8803L26.2343 32.9327L26.3081 32.8046L26.5034 32.467L26.3081 32.1289L26.2343 32.0012Z" fill="#84D5F7"/>
<path d="M19.6972 23.9092L20.2826 22.8959H19.1123H18.6688H3.67047H3.22694H2.05664L2.64203 23.9092L2.86379 24.2936L10.3627 37.2823L10.5845 37.6663L11.1694 38.68L11.7548 37.6663L11.9765 37.2823L19.4754 24.2936L19.6972 23.9092Z" fill="#438CCB"/>
<path d="M3.77641 21.8324H11.2753H11.7189H12.8892L12.3038 20.8186L12.082 20.4347L8.33279 13.9401L8.11102 13.5561L7.52563 12.5424L6.94072 13.5561L6.71895 13.9401L2.96926 20.4347L2.7475 20.8186L2.16211 21.8324H3.33288H3.77641Z" fill="#84D5F7"/>
<path d="M10.5298 15.6203L13.8473 21.3663L13.9215 21.4945L14.1163 21.8326H14.5064H14.6545H18.1157H18.2632H18.6533L18.8486 21.4945L18.9224 21.3668L23.0631 14.1946L23.1374 14.0665L23.3322 13.7289L23.1374 13.3908L23.0631 13.2626L18.015 4.5192L17.7932 4.13477L17.2078 3.12146L16.6229 4.13477L16.4012 4.5192L10.5298 14.6883L10.4556 14.8164L10.2607 15.1545L10.4556 15.4921L10.5298 15.6203Z" fill="#55A6D7"/>
<path d="M33.135 22.8959H32.6914H23.8194H23.3759H22.2051L22.7905 23.9092L23.0122 24.2936L27.4485 31.9769L27.6703 32.3609L28.2552 33.3747L28.8406 32.3609L29.0623 31.9769L33.4981 24.2936L33.7199 23.9092L34.3053 22.8959H33.135Z" fill="#55A6D7"/>
<path d="M20.4667 20.8187L19.8818 21.8325H21.0521H21.4957H32.5854H33.0289H34.1997L33.6143 20.8187L33.3925 20.4348L27.8474 10.8303L27.6257 10.4463L27.0408 9.43298L26.4554 10.4463L26.2336 10.8303L20.6885 20.4348L20.4667 20.8187Z" fill="#62BFEC"/>
<path d="M27.0408 6.31159L23.947 11.6709L17.2084 0L10.0234 12.4449L9.64517 13.0965L7.52302 9.42151L0 22.4575L11.1692 41.8017L12.0784 40.2267L17.9522 50.4L27.1179 34.5255L28.256 36.4968L36.3621 22.4575L27.0408 6.31159ZM33.0677 24.0434L28.2556 32.3802L23.067 23.3961H33.4441L33.0658 24.0477L33.0677 24.0434ZM3.0234 21.3354L3.40167 20.6838L7.52728 13.5377L12.0293 21.3354H3.0234ZM18.3669 21.3354H14.4039L10.8358 15.1548L17.2084 4.11662L22.7587 13.7292L18.3669 21.3354ZM19.4208 23.3937L11.1692 37.6856L2.91795 23.3937H19.4208ZM21.2442 24.3522L25.9291 32.4672L17.9522 46.2834L13.2672 38.1688L21.2442 24.3522ZM26.6649 11.0793L27.0432 10.4277L33.3387 21.3354H20.7434L26.6649 11.0793Z" fill="#002C3B"/>
</svg>
