<svg id="katman_1" data-name="katman 1" xmlns="http://www.w3.org/2000/svg" xmlns:xlink="http://www.w3.org/1999/xlink" viewBox="0 0 390.29 154.78"><defs><style>.cls-1{fill:#322f52;}.cls-2{fill:url(#Adsız_degrade_2);}</style><linearGradient id="Adsız_degrade_2" x1="169.81" y1="433.63" x2="331.19" y2="433.63" gradientUnits="userSpaceOnUse"><stop offset="0" stop-color="#c95fa0"/><stop offset="0.15" stop-color="#c55e9e"/><stop offset="0.32" stop-color="#b85a97"/><stop offset="0.49" stop-color="#a2538c"/><stop offset="0.66" stop-color="#84497d"/><stop offset="0.83" stop-color="#5e3d69"/><stop offset="1" stop-color="#322f52"/></linearGradient></defs><rect class="cls-1" x="1.65" y="25.26" width="15.38" height="60.84"/><path class="cls-1" d="M112.3,343.61a9.35,9.35,0,0,0-6.75,2.58,9,9,0,0,0,0,12.85,10.12,10.12,0,0,0,13.5,0,9,9,0,0,0,0-12.85A9.35,9.35,0,0,0,112.3,343.61Z" transform="translate(-102.85 -343.61)"/><path class="cls-1" d="M171.06,377.32a22.78,22.78,0,0,0-8.57-6.86,25.86,25.86,0,0,0-11.31-2.58A26.5,26.5,0,0,0,127,382.71a35.24,35.24,0,0,0-3.68,16.36A35.86,35.86,0,0,0,127,415.6a27.56,27.56,0,0,0,10,11.15,26.18,26.18,0,0,0,14.06,3.95A25.11,25.11,0,0,0,163,428a20.84,20.84,0,0,0,8-7.25v9h15.59V348.44H171.06ZM169,408.9a15.55,15.55,0,0,1-5.93,6.15,15.83,15.83,0,0,1-8,2.14,15,15,0,0,1-7.85-2.2,16.08,16.08,0,0,1-5.93-6.31,19.75,19.75,0,0,1-2.25-9.61,19.1,19.1,0,0,1,2.25-9.5,15.82,15.82,0,0,1,21.8-6,15.55,15.55,0,0,1,5.93,6.15,22.18,22.18,0,0,1,0,19.22Z" transform="translate(-102.85 -343.61)"/><path class="cls-1" d="M204.72,426.8a31.7,31.7,0,0,0,15.76,3.9q10.86,0,18.33-5.66a27.72,27.72,0,0,0,10.11-14.44H232.34Q228.71,418,220.15,418a14.22,14.22,0,0,1-10-3.73q-4.07-3.74-4.61-10.33H250l.09-.65a33.83,33.83,0,0,0,3.48,12.35,27.71,27.71,0,0,0,10,11.15,25.91,25.91,0,0,0,14,3.95,25.14,25.14,0,0,0,12-2.8,23,23,0,0,0,8.18-7.09v8.9h15.48V368.87H297.79v8.67a24.21,24.21,0,0,0-8.18-6.91,24.83,24.83,0,0,0-11.92-2.75,26.61,26.61,0,0,0-14.11,3.84,27,27,0,0,0-10,11,32.73,32.73,0,0,0-3.35,11.13,30.66,30.66,0,0,0-3.57-11.63A26.38,26.38,0,0,0,236,371.61a34.6,34.6,0,0,0-31.47.11,26.87,26.87,0,0,0-10.76,11,34.35,34.35,0,0,0-3.85,16.58,33.81,33.81,0,0,0,3.9,16.47A27.4,27.4,0,0,0,204.72,426.8Zm63.14-37.23a15.82,15.82,0,0,1,21.8-6,15.48,15.48,0,0,1,5.93,6.15,22.09,22.09,0,0,1,0,19.22,15.48,15.48,0,0,1-5.93,6.15,15.82,15.82,0,0,1-8,2.14,15,15,0,0,1-7.86-2.2,16.15,16.15,0,0,1-5.93-6.31,19.75,19.75,0,0,1-2.25-9.61A19.1,19.1,0,0,1,267.86,389.57ZM210.43,384a13.92,13.92,0,0,1,9.61-3.46,15.17,15.17,0,0,1,10.21,3.57,12.18,12.18,0,0,1,4.28,9.5H205.65A15.17,15.17,0,0,1,210.43,384Z" transform="translate(-102.85 -343.61)"/><rect class="cls-1" x="217.67" y="4.83" width="15.38" height="81.27"/><path class="cls-1" d="M396.71,412.47a9.5,9.5,0,0,0-6.86,2.58,9,9,0,0,0,0,12.85,9.5,9.5,0,0,0,6.86,2.58,9.19,9.19,0,0,0,6.7-2.58,9.16,9.16,0,0,0,0-12.85A9.19,9.19,0,0,0,396.71,412.47Z" transform="translate(-102.85 -343.61)"/><rect class="cls-1" x="308.8" y="25.26" width="15.38" height="60.84"/><path class="cls-1" d="M419.45,343.61a9.35,9.35,0,0,0-6.75,2.58,9,9,0,0,0,0,12.85,10.13,10.13,0,0,0,13.51,0,9,9,0,0,0,0-12.85A9.39,9.39,0,0,0,419.45,343.61Z" transform="translate(-102.85 -343.61)"/><path class="cls-1" d="M489,382.82a28.66,28.66,0,0,0-11.26-11,34.46,34.46,0,0,0-31.85,0,28.66,28.66,0,0,0-11.26,11,32.42,32.42,0,0,0-4.11,16.47,33.09,33.09,0,0,0,4,16.47,28.17,28.17,0,0,0,11,11,32.06,32.06,0,0,0,15.82,3.9,33.22,33.22,0,0,0,16.09-3.9,29.33,29.33,0,0,0,11.42-11,31.79,31.79,0,0,0,4.23-16.47A32.43,32.43,0,0,0,489,382.82Zm-13.9,26.35a14.78,14.78,0,0,1-5.87,6.1,16,16,0,0,1-7.85,2,14.25,14.25,0,0,1-10.93-4.67q-4.34-4.67-4.34-13.34T450.59,386a14.62,14.62,0,0,1,11-4.67A15,15,0,0,1,472.77,386q4.56,4.67,4.56,13.34A20.43,20.43,0,0,1,475.13,409.17Z" transform="translate(-102.85 -343.61)"/><path class="cls-2" d="M385.1,368.87l-15.93,42.5-15.7-42.5H336.23l24,58.36a98.93,98.93,0,0,1-53.58,52.53c-27.13,11.24-57.34,10.32-82.88-2.51a104.9,104.9,0,0,1-40.47-35.43H176a109.63,109.63,0,0,0,96.57,56.57c2.71,0,5.42-.09,8.14-.29,44.11-3.12,81.63-30.81,97.92-72.25l22.84-57Z" transform="translate(-102.85 -343.61)"/></svg>