<svg width="118" height="40" viewBox="0 0 118 40" fill="none" xmlns="http://www.w3.org/2000/svg">
<path d="M20.274 25.2377L17.0407 19.6375L16.8694 19.3408L16.4173 18.5573L15.9649 19.3408L15.7935 19.6375L10.0165 29.6436L9.95915 29.7426L9.80859 30.0036L9.95951 30.2648L10.0165 30.3635L13.2498 35.9637L13.4208 36.2607L13.8732 37.0439L14.3256 36.2607L14.497 35.9637L20.274 25.9576L20.331 25.8585L20.482 25.5976L20.331 25.3363L20.274 25.2377Z" fill="#84D5F7"/>
<path d="M15.2208 18.9841L15.6732 18.201H14.7688H14.426H2.83509H2.49232H1.58789L2.04029 18.9841L2.21167 19.2812L8.00697 29.3191L8.17835 29.6158L8.63038 30.3993L9.08278 29.6158L9.25417 29.3191L15.0495 19.2812L15.2208 18.9841Z" fill="#438CCB"/>
<path d="M2.91944 17.3791H8.71473H9.0575H9.96193L9.50953 16.5956L9.33815 16.2989L6.44069 11.2798L6.2693 10.9831L5.8169 10.1996L5.36487 10.9831L5.19349 11.2798L2.29566 16.2989L2.12427 16.5956L1.67188 17.3791H2.57667H2.91944Z" fill="#84D5F7"/>
<path d="M8.13762 12.5782L10.7014 17.0189L10.7588 17.1179L10.9094 17.3792H11.2108H11.3252H14.0001H14.1142H14.4156L14.5666 17.1179L14.6236 17.0192L17.8236 11.4764L17.881 11.3774L18.0315 11.1165L17.881 10.8552L17.8236 10.7562L13.9223 3.99908L13.7509 3.70199L13.2985 2.91888L12.8465 3.70199L12.6751 3.99908L8.13762 11.8579L8.08024 11.957L7.92969 12.2182L8.08024 12.4792L8.13762 12.5782Z" fill="#55A6D7"/>
<path d="M25.607 18.201H25.2642H18.4077H18.065H17.1602L17.6126 18.9841L17.7839 19.2812L21.2124 25.219L21.3838 25.5157L21.8358 26.2992L22.2882 25.5157L22.4596 25.219L25.8876 19.2812L26.059 18.9841L26.5114 18.201H25.607Z" fill="#55A6D7"/>
<path d="M15.8173 16.5957L15.3652 17.3791H16.2697H16.6124H25.1828H25.5255H26.4303L25.9779 16.5957L25.8066 16.2989L21.5212 8.8764L21.3498 8.57968L20.8978 7.79657L20.4454 8.57968L20.274 8.8764L15.9887 16.2989L15.8173 16.5957Z" fill="#62BFEC"/>
<path d="M20.8976 5.38424L18.5066 9.52598L13.299 0.506531L7.7463 10.1242L7.45396 10.6277L5.81393 7.78765L0 17.8621L8.63173 32.8117L9.33444 31.5944L13.8738 39.4566L20.9572 27.1885L21.8368 28.7119L28.1013 17.8621L20.8976 5.38424ZM25.5553 19.0877L21.8364 25.5305L17.8266 18.5875H25.8462L25.5539 19.091L25.5553 19.0877ZM2.33653 16.9949L2.62888 16.4914L5.81722 10.9687L9.29644 16.9949H2.33653ZM14.1942 16.9949H11.1316L8.37411 12.2184L13.299 3.68793L17.5883 11.1167L14.1942 16.9949ZM15.0088 18.5856L8.63173 29.6306L2.25504 18.5856H15.0088ZM16.4179 19.3263L20.0385 25.5978L13.8738 36.2752L10.2531 30.0041L16.4179 19.3263ZM20.6071 9.06883L20.8995 8.56527L25.7647 16.9949H16.0309L20.6071 9.06883Z" fill="#002C3B"/>
<path d="M35.5091 28.7737C35.1675 28.7737 34.8942 28.6968 34.6893 28.5431C34.4843 28.3893 34.3647 28.1844 34.3306 27.9282C34.2964 27.672 34.3476 27.3816 34.4843 27.057L41.4277 11.4793C41.5985 11.0693 41.812 10.779 42.0682 10.6081C42.3415 10.4373 42.6404 10.3519 42.965 10.3519C43.2724 10.3519 43.5542 10.4373 43.8105 10.6081C44.0837 10.779 44.3058 11.0693 44.4766 11.4793L51.42 27.057C51.5737 27.3816 51.6335 27.6805 51.5993 27.9538C51.5652 28.21 51.4542 28.415 51.2663 28.5687C51.0784 28.7053 50.8136 28.7737 50.472 28.7737C50.0962 28.7737 49.7973 28.6797 49.5753 28.4918C49.3532 28.3039 49.1568 28.0136 48.986 27.6207L47.1925 23.4701L48.3967 24.1874H37.482L38.6606 23.4701L36.8927 27.6207C36.7219 28.0306 36.534 28.3296 36.329 28.5175C36.1241 28.6883 35.8508 28.7737 35.5091 28.7737ZM42.9137 13.4777L39.0449 22.6502L38.4044 22.0353H47.4487L46.8594 22.6502L42.965 13.4777H42.9137Z" fill="white"/>
<path d="M58.2181 28.8249C56.8857 28.8249 55.878 28.4406 55.1947 27.672C54.5286 26.8862 54.1955 25.7589 54.1955 24.2899V11.6586C54.1955 11.2316 54.3065 10.9071 54.5286 10.685C54.7506 10.463 55.0666 10.3519 55.4766 10.3519C55.8865 10.3519 56.2025 10.463 56.4246 10.685C56.6637 10.9071 56.7833 11.2316 56.7833 11.6586V24.1362C56.7833 24.9903 56.9541 25.6308 57.2957 26.0578C57.6544 26.4678 58.1668 26.6727 58.833 26.6727C58.9867 26.6727 59.1233 26.6727 59.2429 26.6727C59.3625 26.6556 59.482 26.6386 59.6016 26.6215C59.8066 26.6044 59.9518 26.6642 60.0372 26.8008C60.1226 26.9204 60.1653 27.1766 60.1653 27.5695C60.1653 27.9282 60.0884 28.21 59.9347 28.415C59.781 28.6029 59.5333 28.7224 59.1917 28.7737C59.0379 28.7907 58.8757 28.7993 58.7049 28.7993C58.534 28.8164 58.3718 28.8249 58.2181 28.8249Z" fill="white"/>
<path d="M67.081 28.8249C66.0562 28.8249 65.1936 28.6456 64.4933 28.2869C63.793 27.9282 63.272 27.3987 62.9304 26.6983C62.5888 25.998 62.4179 25.144 62.4179 24.1362V18.0896H60.8807C60.539 18.0896 60.2743 18.0042 60.0864 17.8334C59.8985 17.6455 59.8046 17.3978 59.8046 17.0903C59.8046 16.7658 59.8985 16.5181 60.0864 16.3473C60.2743 16.1765 60.539 16.0911 60.8807 16.0911H62.4179V13.4521C62.4179 13.0251 62.529 12.7006 62.751 12.4785C62.9902 12.2564 63.3147 12.1454 63.7246 12.1454C64.1346 12.1454 64.4506 12.2564 64.6726 12.4785C64.8947 12.7006 65.0057 13.0251 65.0057 13.4521V16.0911H68.0034C68.345 16.0911 68.6098 16.1765 68.7977 16.3473C68.9855 16.5181 69.0795 16.7658 69.0795 17.0903C69.0795 17.3978 68.9855 17.6455 68.7977 17.8334C68.6098 18.0042 68.345 18.0896 68.0034 18.0896H65.0057V23.9312C65.0057 24.8365 65.1936 25.5198 65.5694 25.9809C65.9622 26.4421 66.5942 26.6727 67.4654 26.6727C67.7728 26.6727 68.0376 26.6471 68.2596 26.5959C68.4987 26.5275 68.6952 26.4848 68.8489 26.4677C69.0368 26.4677 69.1905 26.5361 69.3101 26.6727C69.4297 26.7923 69.4894 27.0314 69.4894 27.3901C69.4894 27.6463 69.4382 27.8855 69.3357 28.1075C69.2503 28.3296 69.088 28.4748 68.8489 28.5431C68.6439 28.6114 68.3621 28.6712 68.0034 28.7224C67.6618 28.7907 67.3543 28.8249 67.081 28.8249Z" fill="white"/>
<path d="M76.4162 28.8249C75.1522 28.8249 74.059 28.5602 73.1367 28.0306C72.2314 27.5011 71.5225 26.7496 71.0101 25.776C70.4977 24.8024 70.2415 23.6579 70.2415 22.3427C70.2415 21.3349 70.3867 20.4382 70.677 19.6525C70.9674 18.8668 71.3773 18.1921 71.9068 17.6284C72.4534 17.0476 73.1025 16.6121 73.8541 16.3217C74.6227 16.0142 75.4768 15.8605 76.4162 15.8605C77.6631 15.8605 78.7392 16.1253 79.6445 16.6548C80.5669 17.1843 81.2843 17.9358 81.7967 18.9095C82.3091 19.866 82.5653 21.0104 82.5653 22.3427C82.5653 23.3334 82.4201 24.2302 82.1298 25.033C81.8394 25.8358 81.4209 26.519 80.8743 27.0827C80.3448 27.6463 79.6957 28.0819 78.9271 28.3893C78.1755 28.6797 77.3386 28.8249 76.4162 28.8249ZM76.4162 26.8264C77.1165 26.8264 77.7314 26.6556 78.2609 26.314C78.7904 25.9724 79.2004 25.4685 79.4908 24.8024C79.7982 24.1362 79.952 23.3163 79.952 22.3427C79.952 20.8738 79.6274 19.7635 78.9783 19.0119C78.3293 18.2604 77.4752 17.8846 76.4162 17.8846C75.6988 17.8846 75.0754 18.0554 74.5458 18.397C74.0163 18.7216 73.5979 19.2169 73.2904 19.8831C73 20.5492 72.8548 21.3691 72.8548 22.3427C72.8548 23.7946 73.1794 24.9048 73.8284 25.6735C74.4775 26.4421 75.3401 26.8264 76.4162 26.8264Z" fill="white"/>
<path d="M91.1339 33.4368C90.2115 33.4368 89.3147 33.3428 88.4436 33.1549C87.5896 32.967 86.8124 32.6596 86.1121 32.2326C85.8559 32.0959 85.6851 31.9251 85.5997 31.7201C85.5142 31.5322 85.4886 31.3358 85.5228 31.1308C85.574 30.9259 85.668 30.7465 85.8046 30.5928C85.9413 30.4391 86.1035 30.3366 86.2914 30.2853C86.4964 30.2341 86.7099 30.2682 86.932 30.3878C87.6835 30.7978 88.3924 31.071 89.0585 31.2077C89.7418 31.3614 90.3738 31.4383 90.9545 31.4383C92.1502 31.4383 93.0469 31.1308 93.6448 30.5159C94.2426 29.9181 94.5415 29.0299 94.5415 27.8513V25.2379H94.7721C94.5159 26.1774 93.9778 26.9204 93.1579 27.467C92.3381 28.0136 91.3901 28.2869 90.314 28.2869C89.1866 28.2869 88.2045 28.0307 87.3675 27.5182C86.5306 26.9887 85.8815 26.2628 85.4203 25.3404C84.9591 24.401 84.7285 23.3078 84.7285 22.0609C84.7285 21.1214 84.8566 20.2759 85.1128 19.5244C85.3861 18.7728 85.7619 18.1237 86.2402 17.5771C86.7355 17.0306 87.3248 16.6121 88.0081 16.3217C88.7084 16.0142 89.477 15.8605 90.314 15.8605C91.4072 15.8605 92.3551 16.1338 93.1579 16.6804C93.9778 17.227 94.5073 17.97 94.7465 18.9095L94.4903 19.345V17.2184C94.4903 16.7914 94.6013 16.4669 94.8233 16.2448C95.0625 16.0228 95.3785 15.9118 95.7713 15.9118C96.1813 15.9118 96.4973 16.0228 96.7193 16.2448C96.9414 16.4669 97.0524 16.7914 97.0524 17.2184V27.5438C97.0524 29.4911 96.5485 30.96 95.5407 31.9507C94.533 32.9414 93.064 33.4368 91.1339 33.4368ZM90.9289 26.2628C91.6805 26.2628 92.321 26.092 92.8505 25.7504C93.38 25.4087 93.7899 24.9219 94.0803 24.2899C94.3707 23.6579 94.5159 22.9149 94.5159 22.0609C94.5159 20.7798 94.1913 19.7635 93.5423 19.0119C92.9103 18.2604 92.0392 17.8846 90.9289 17.8846C90.1944 17.8846 89.5624 18.0554 89.0329 18.397C88.5034 18.7386 88.0849 19.2255 87.7775 19.8574C87.4871 20.4724 87.3419 21.2068 87.3419 22.0609C87.3419 23.359 87.6664 24.3839 88.3155 25.1354C88.9646 25.887 89.8357 26.2628 90.9289 26.2628Z" fill="white"/>
<path d="M101.965 28.748C101.555 28.748 101.239 28.6285 101.017 28.3893C100.795 28.1331 100.684 27.783 100.684 27.3389V17.3466C100.684 16.9025 100.795 16.5608 101.017 16.3217C101.239 16.0826 101.555 15.963 101.965 15.963C102.375 15.963 102.691 16.0826 102.913 16.3217C103.152 16.5608 103.272 16.9025 103.272 17.3466V27.3389C103.272 27.783 103.161 28.1331 102.939 28.3893C102.717 28.6285 102.392 28.748 101.965 28.748ZM101.965 13.2984C101.453 13.2984 101.051 13.1703 100.761 12.9141C100.488 12.6578 100.351 12.2991 100.351 11.838C100.351 11.3597 100.488 11.001 100.761 10.7619C101.051 10.5057 101.453 10.3775 101.965 10.3775C102.478 10.3775 102.871 10.5057 103.144 10.7619C103.434 11.001 103.579 11.3597 103.579 11.838C103.579 12.2991 103.434 12.6578 103.144 12.9141C102.871 13.1703 102.478 13.2984 101.965 13.2984Z" fill="white"/>
<path d="M112.423 28.8249C111.142 28.8249 110.032 28.5602 109.092 28.0306C108.17 27.4841 107.452 26.724 106.94 25.7504C106.428 24.7597 106.171 23.5982 106.171 22.2659C106.171 21.2752 106.317 20.387 106.607 19.6012C106.897 18.7984 107.307 18.1237 107.837 17.5771C108.383 17.0306 109.041 16.6121 109.81 16.3217C110.595 16.0142 111.466 15.8605 112.423 15.8605C113.021 15.8605 113.644 15.9545 114.293 16.1423C114.959 16.3132 115.574 16.6035 116.138 17.0135C116.36 17.1501 116.497 17.3209 116.548 17.5259C116.616 17.7138 116.625 17.9102 116.574 18.1152C116.539 18.3202 116.446 18.4995 116.292 18.6532C116.155 18.7899 115.984 18.8753 115.779 18.9095C115.574 18.9265 115.352 18.8668 115.113 18.7301C114.703 18.4397 114.285 18.2348 113.858 18.1152C113.431 17.9785 113.021 17.9102 112.628 17.9102C112.013 17.9102 111.466 18.0127 110.988 18.2177C110.527 18.4056 110.134 18.6874 109.81 19.0632C109.485 19.4219 109.237 19.8745 109.067 20.4211C108.913 20.9677 108.836 21.5912 108.836 22.2915C108.836 23.6921 109.161 24.7938 109.81 25.5966C110.476 26.3823 111.415 26.7752 112.628 26.7752C113.021 26.7752 113.431 26.7154 113.858 26.5959C114.285 26.4763 114.703 26.2713 115.113 25.9809C115.352 25.8443 115.574 25.7931 115.779 25.8272C115.984 25.8614 116.147 25.9553 116.266 26.1091C116.403 26.2457 116.488 26.4165 116.522 26.6215C116.574 26.8094 116.565 27.0058 116.497 27.2108C116.428 27.4157 116.283 27.5865 116.061 27.7232C115.515 28.1161 114.917 28.3979 114.268 28.5687C113.636 28.7395 113.021 28.8249 112.423 28.8249Z" fill="white"/>
</svg>
