<?xml version="1.0" encoding="UTF-8"?><svg xmlns="http://www.w3.org/2000/svg" xmlns:xlink="http://www.w3.org/1999/xlink" viewBox="0 0 390.29 154.78"><defs><style>.e{fill:url(#d);}.f{fill:#fff;}</style><linearGradient id="d" x1="66.95" y1="90.02" x2="228.33" y2="90.02" gradientTransform="matrix(1, 0, 0, 1, 0, 0)" gradientUnits="userSpaceOnUse"><stop offset="0" stop-color="#c95f9f"/><stop offset=".15" stop-color="#ca63a1"/><stop offset=".31" stop-color="#ce70a9"/><stop offset=".47" stop-color="#d685b6"/><stop offset=".64" stop-color="#e0a3c8"/><stop offset=".81" stop-color="#edcadf"/><stop offset=".98" stop-color="#fcf8fb"/><stop offset="1" stop-color="#fff"/></linearGradient></defs><g id="a"/><g id="b"><g id="c"><g><g><rect class="f" x="1.65" y="25.26" width="15.38" height="60.84"/><path class="f" d="M9.44,0C6.74,0,4.48,.86,2.69,2.58,.9,4.3,0,6.44,0,9.01s.9,4.71,2.69,6.42c1.79,1.72,4.04,2.58,6.75,2.58s4.96-.86,6.75-2.58c1.79-1.72,2.69-3.86,2.69-6.42s-.9-4.7-2.69-6.42C14.4,.86,12.15,0,9.44,0Z"/><path class="f" d="M68.2,33.72c-2.12-2.86-4.98-5.14-8.57-6.86-3.59-1.72-7.36-2.58-11.31-2.58-5.2,0-9.92,1.28-14.17,3.84-4.25,2.56-7.6,6.22-10.05,10.98-2.45,4.76-3.68,10.21-3.68,16.36s1.23,11.73,3.68,16.53c2.45,4.8,5.8,8.51,10.05,11.15,4.25,2.63,8.93,3.95,14.06,3.95,4.54,0,8.53-.92,11.97-2.75,3.44-1.83,6.11-4.24,8.02-7.25v9.01h15.59V4.83h-15.59v28.88Zm-2.09,31.57c-1.47,2.67-3.44,4.72-5.93,6.15-2.49,1.43-5.16,2.14-8.02,2.14s-5.4-.73-7.85-2.2c-2.45-1.46-4.43-3.57-5.93-6.31-1.5-2.75-2.25-5.95-2.25-9.61s.75-6.83,2.25-9.5c1.5-2.67,3.46-4.7,5.88-6.09,2.42-1.39,5.05-2.09,7.91-2.09s5.53,.71,8.02,2.14c2.49,1.43,4.46,3.48,5.93,6.15,1.46,2.67,2.2,5.88,2.2,9.61s-.73,6.94-2.2,9.61Z"/><path class="f" d="M101.86,83.19c4.65,2.6,9.9,3.9,15.76,3.9,7.25,0,13.36-1.88,18.34-5.66,4.98-3.77,8.35-8.58,10.1-14.44h-16.58c-2.42,4.91-6.48,7.36-12.19,7.36-3.95,0-7.29-1.24-9.99-3.73-2.71-2.49-4.25-5.93-4.61-10.32h44.48c.03-.21,.06-.43,.09-.65,.43,4.54,1.59,8.66,3.48,12.34,2.45,4.8,5.78,8.51,9.99,11.15,4.21,2.63,8.88,3.95,14,3.95,4.54,0,8.55-.93,12.03-2.8,3.48-1.87,6.21-4.23,8.18-7.08v8.9h15.49V25.26h-15.49v8.68c-2.05-2.78-4.78-5.09-8.18-6.92-3.4-1.83-7.38-2.75-11.92-2.75-5.2,0-9.9,1.28-14.11,3.84-4.21,2.56-7.54,6.22-9.99,10.98-1.73,3.36-2.84,7.08-3.35,11.13-.46-4.27-1.65-8.15-3.57-11.63-2.53-4.58-6.08-8.11-10.65-10.6-4.58-2.49-9.76-3.73-15.54-3.73s-11.31,1.28-15.92,3.84c-4.61,2.56-8.2,6.22-10.76,10.98-2.56,4.76-3.84,10.29-3.84,16.58s1.3,11.71,3.9,16.47c2.6,4.76,6.22,8.44,10.87,11.04Zm63.15-37.23c1.5-2.67,3.46-4.7,5.88-6.09,2.42-1.39,5.05-2.09,7.91-2.09s5.53,.71,8.02,2.14c2.49,1.43,4.46,3.48,5.93,6.15,1.46,2.67,2.2,5.88,2.2,9.61s-.73,6.94-2.2,9.61c-1.47,2.67-3.44,4.72-5.93,6.15-2.49,1.43-5.16,2.14-8.02,2.14s-5.4-.73-7.85-2.2c-2.45-1.46-4.43-3.57-5.93-6.31-1.5-2.75-2.25-5.95-2.25-9.61s.75-6.83,2.25-9.5Zm-57.44-5.6c2.6-2.31,5.8-3.46,9.61-3.46,4.03,0,7.43,1.19,10.21,3.57,2.78,2.38,4.21,5.54,4.28,9.5h-28.88c.58-4.1,2.18-7.3,4.78-9.61Z"/><rect class="f" x="217.67" y="4.83" width="15.38" height="81.27"/><path class="f" d="M293.85,68.86c-2.78,0-5.07,.86-6.86,2.58-1.79,1.72-2.69,3.86-2.69,6.43s.9,4.71,2.69,6.42c1.79,1.72,4.08,2.58,6.86,2.58s4.94-.86,6.7-2.58c1.76-1.72,2.64-3.86,2.64-6.42s-.88-4.7-2.64-6.43c-1.76-1.72-3.99-2.58-6.7-2.58Z"/><rect class="f" x="308.8" y="25.26" width="15.38" height="60.84"/><path class="f" d="M316.6,0c-2.71,0-4.96,.86-6.75,2.58-1.79,1.72-2.69,3.86-2.69,6.42s.9,4.71,2.69,6.42c1.79,1.72,4.04,2.58,6.75,2.58s4.96-.86,6.75-2.58c1.79-1.72,2.69-3.86,2.69-6.42s-.9-4.7-2.69-6.42c-1.79-1.72-4.05-2.58-6.75-2.58Z"/><path class="f" d="M386.17,39.21c-2.75-4.76-6.5-8.44-11.26-11.04-4.76-2.6-10.07-3.9-15.92-3.9s-11.17,1.3-15.92,3.9c-4.76,2.6-8.51,6.28-11.26,11.04-2.75,4.76-4.12,10.25-4.12,16.47s1.33,11.71,4.01,16.47c2.67,4.76,6.35,8.44,11.04,11.04,4.69,2.6,9.96,3.9,15.82,3.9s11.29-1.3,16.09-3.9c4.79-2.6,8.6-6.28,11.42-11.04,2.82-4.76,4.23-10.25,4.23-16.47s-1.37-11.71-4.12-16.47Zm-13.89,26.36c-1.47,2.71-3.42,4.74-5.88,6.1-2.45,1.36-5.07,2.03-7.85,2.03-4.39,0-8.04-1.55-10.93-4.67-2.89-3.11-4.34-7.56-4.34-13.34s1.48-10.23,4.45-13.34c2.97-3.11,6.64-4.67,11.04-4.67s8.11,1.56,11.15,4.67c3.04,3.11,4.56,7.56,4.56,13.34,0,3.88-.73,7.18-2.2,9.88Z"/></g><path class="e" d="M282.24,25.26l-15.92,42.5-15.71-42.5h-17.24l23.99,58.36c-9.94,23.49-29.12,42.4-53.58,52.53-27.13,11.23-57.33,10.32-82.87-2.51-16.14-7.9-30.38-20.4-40.47-35.43h-7.3c11.04,19.42,26.96,34.83,46.04,44.56,15.52,7.91,32.84,12.01,50.53,12.01,2.7,0,5.42-.1,8.13-.29,44.11-3.13,81.64-30.81,97.92-72.25l22.84-56.99h-16.36Z"/></g></g></g></svg>