<svg width="236" height="58" viewBox="0 0 236 58" fill="none" xmlns="http://www.w3.org/2000/svg">
<g clip-path="url(#clip0_601_4687)">
<path d="M41.1473 5.04823C41.1463 4.05156 40.8457 3.07754 40.2836 2.24931C39.7215 1.42107 38.923 0.775805 37.9892 0.395072C37.0553 0.0143387 36.028 -0.0847689 35.037 0.110275C34.046 0.305319 33.1359 0.785758 32.4218 1.49086C31.7076 2.19597 31.2214 3.0941 31.0246 4.0717C30.8278 5.0493 30.9293 6.06249 31.3162 6.98321C31.7032 7.90392 32.3582 8.69083 33.1984 9.24446C34.0387 9.79808 35.0265 10.0936 36.037 10.0936C37.393 10.0928 38.6931 9.56081 39.6514 8.61465C40.6098 7.6685 41.1478 6.38564 41.1473 5.04823Z" fill="#010B40"/>
<path d="M23.1934 12.2209C24.8931 13.0789 26.3082 14.3989 27.2715 16.0249C28.2379 17.6548 28.7218 19.5575 28.7232 21.7331V38.6292C28.7224 38.8262 28.6428 39.0149 28.5016 39.1542C28.3605 39.2936 28.1694 39.3723 27.9697 39.3734H20.5688C20.4699 39.3732 20.372 39.3539 20.2806 39.3164C20.1892 39.279 20.1062 39.2241 20.0364 39.155C19.9665 39.0859 19.9111 39.0039 19.8734 38.9137C19.8356 38.8235 19.8163 38.7268 19.8164 38.6292V23.7581C19.8164 22.1111 19.357 20.8596 18.4382 20.0037C17.5195 19.1477 16.2261 18.7178 14.5582 18.7138C12.8575 18.7138 11.4901 19.15 10.4559 20.0225C9.42181 20.895 8.90509 22.122 8.90576 23.7036V38.6243C8.90589 38.7219 8.88652 38.8185 8.84878 38.9087C8.81104 38.999 8.75565 39.081 8.68578 39.1501C8.61591 39.2192 8.53292 39.274 8.44156 39.3115C8.35019 39.3489 8.25225 39.3683 8.1533 39.3684H0.752455C0.552788 39.3676 0.361555 39.2889 0.220557 39.1495C0.0795586 39.01 0.000264278 38.8212 0 38.6243V2.95272C0 2.75562 0.079378 2.56659 0.22068 2.42723C0.361982 2.28786 0.553631 2.20956 0.753462 2.20956H2.65271C4.3114 2.21088 5.90167 2.86183 7.07387 4.01931C8.24608 5.17679 8.90428 6.74603 8.90374 8.38203V12.8866C8.90437 12.9651 8.92739 13.0417 8.97014 13.1079C9.01319 13.1742 9.07465 13.2269 9.14719 13.2597C9.21942 13.2928 9.29972 13.3048 9.37865 13.2944C9.45759 13.2841 9.53189 13.2517 9.59282 13.2012C10.4896 12.4805 11.5123 11.9277 12.6107 11.57C14.0787 11.0867 15.6171 10.8447 17.1647 10.8536C19.4321 10.8596 21.4417 11.3153 23.1934 12.2209Z" fill="#0511F2"/>
<path d="M89.9299 12.4332C91.6304 13.2909 93.0462 14.6109 94.0101 16.2373C94.9764 17.8671 95.46 19.7699 95.4607 21.9454V38.8416C95.4608 38.9392 95.4414 39.0358 95.4037 39.126C95.3659 39.2163 95.3106 39.2983 95.2407 39.3674C95.1708 39.4365 95.0878 39.4913 94.9965 39.5288C94.9051 39.5662 94.8072 39.5856 94.7082 39.5857H87.3074C87.2083 39.5857 87.1103 39.5665 87.0188 39.5291C86.9273 39.4917 86.8442 39.4368 86.7742 39.3677C86.7042 39.2986 86.6488 39.2165 86.611 39.1263C86.5731 39.036 86.5538 38.9392 86.5539 38.8416V23.9705C86.5539 22.3234 86.0945 21.0719 85.1757 20.216C84.257 19.3601 82.9643 18.9318 81.2978 18.9311C79.5957 18.9311 78.2276 19.3673 77.1934 20.2398C76.1593 21.1123 75.6409 22.3393 75.6382 23.9209V38.8416C75.6384 38.9392 75.619 39.036 75.5812 39.1263C75.5434 39.2165 75.4879 39.2986 75.4179 39.3677C75.3479 39.4368 75.2648 39.4917 75.1734 39.5291C75.0819 39.5665 74.9838 39.5857 74.8848 39.5857H67.4839C67.2841 39.5852 67.0926 39.5066 66.9514 39.3671C66.8102 39.2277 66.7307 39.0387 66.7305 38.8416V3.16308C66.7305 2.96598 66.8099 2.77695 66.9512 2.63758C67.0925 2.49821 67.2841 2.41992 67.4839 2.41992H69.3872C71.0468 2.42176 72.6376 3.07371 73.8099 4.23236C74.9822 5.39101 75.6398 6.96148 75.6382 8.59835V13.1059C75.6383 13.1844 75.6613 13.2613 75.7046 13.3272C75.7486 13.3953 75.8119 13.4491 75.8867 13.482C75.9589 13.515 76.0392 13.5271 76.1182 13.5167C76.1971 13.5064 76.2714 13.474 76.3323 13.4234C77.2291 12.7028 78.2519 12.15 79.3502 11.7922C80.8178 11.309 82.356 11.067 83.9032 11.0759C86.1699 11.0752 88.1789 11.5277 89.9299 12.4332Z" fill="#010B40"/>
<path d="M39.7354 11.5045H32.3345C32.2355 11.5045 32.1374 11.5238 32.046 11.5612C31.9545 11.5986 31.8714 11.6534 31.8014 11.7225C31.7314 11.7917 31.6759 11.8737 31.6381 11.964C31.6003 12.0543 31.5809 12.151 31.5811 12.2487V38.6293C31.5809 38.7269 31.6003 38.8237 31.6381 38.914C31.6759 39.0042 31.7314 39.0863 31.8014 39.1554C31.8714 39.2245 31.9545 39.2793 32.046 39.3168C32.1374 39.3542 32.2355 39.3734 32.3345 39.3734H39.7354C39.8343 39.3733 39.9323 39.3539 40.0236 39.3165C40.115 39.279 40.198 39.2241 40.2679 39.155C40.3377 39.0859 40.3931 39.0039 40.4309 38.9137C40.4686 38.8235 40.488 38.7269 40.4878 38.6293V12.2487C40.488 12.1511 40.4686 12.0544 40.4309 11.9642C40.3931 11.874 40.3377 11.792 40.2679 11.7229C40.198 11.6538 40.115 11.5989 40.0236 11.5615C39.9323 11.524 39.8343 11.5046 39.7354 11.5045Z" fill="#0511F2"/>
<path d="M64.7587 32.3258V38.4854C64.7594 38.6365 64.7129 38.7842 64.6256 38.9085C64.5384 39.0327 64.4145 39.1275 64.2708 39.1799C62.8893 39.678 61.2181 39.9271 59.2571 39.9271C55.3533 39.9271 52.4173 38.9881 50.4489 37.1102C48.4806 35.2323 47.4961 32.5818 47.4954 29.1587V19.5056C47.4957 19.4431 47.4834 19.3811 47.4593 19.3233C47.4352 19.2655 47.3997 19.2129 47.355 19.1686C47.3102 19.1244 47.2569 19.0893 47.1984 19.0654C47.1398 19.0415 47.077 19.0292 47.0136 19.0294H43.4927C43.2929 19.0288 43.1014 18.9502 42.9602 18.8108C42.819 18.6713 42.7395 18.4823 42.7393 18.2852V12.461C42.7395 12.2639 42.819 12.0749 42.9602 11.9355C43.1014 11.796 43.2929 11.7174 43.4927 11.7169H47.1142C47.2425 11.7169 47.3656 11.6666 47.4563 11.5771C47.5471 11.4876 47.598 11.3662 47.598 11.2396V7.14878C47.5985 7.00769 47.6392 6.86957 47.7155 6.75024C47.7918 6.63091 47.9007 6.53521 48.0296 6.47408L55.3309 3.0758C55.4459 3.02301 55.5724 2.99948 55.699 3.00734C55.8255 3.01536 55.9479 3.05475 56.0548 3.12188C56.1617 3.18901 56.2497 3.28169 56.3107 3.39132C56.3713 3.50089 56.4031 3.62369 56.4032 3.74851V11.2396C56.4032 11.3662 56.4542 11.4876 56.5449 11.5771C56.6357 11.6666 56.7587 11.7169 56.8871 11.7169H63.7578C63.9576 11.7174 64.1491 11.796 64.2903 11.9355C64.4315 12.0749 64.511 12.2639 64.5112 12.461V18.2852C64.511 18.4823 64.4315 18.6713 64.2903 18.8108C64.1491 18.9502 63.9576 19.0288 63.7578 19.0294H56.874C56.8105 19.0292 56.7476 19.0415 56.6889 19.0653C56.6302 19.0892 56.5768 19.1243 56.5319 19.1685C56.487 19.2127 56.4513 19.2653 56.427 19.3231C56.4026 19.381 56.3901 19.443 56.3901 19.5056V28.4245C56.3901 29.6767 56.7657 30.5911 57.5168 31.1679C58.2679 31.7447 59.2437 32.0331 60.4441 32.0331C61.5801 32.0343 62.7117 31.894 63.8121 31.6154C63.9228 31.5872 64.0385 31.5842 64.1505 31.6066C64.2626 31.6289 64.368 31.676 64.4589 31.7444C64.5499 31.8127 64.6239 31.9005 64.6751 32.0013C64.7264 32.1021 64.7536 32.2131 64.7547 32.3258H64.7587Z" fill="#010B40"/>
<path d="M127.232 28.5634H107.043C106.953 28.5632 106.865 28.5854 106.787 28.6279C106.708 28.6696 106.642 28.7313 106.595 28.8065C106.547 28.881 106.52 28.9664 106.515 29.0545C106.511 29.1429 106.529 29.2309 106.568 29.3105C107.12 30.3993 107.98 31.3065 109.045 31.922C110.379 32.7158 112.03 33.1126 113.999 33.1126C115.5 33.1126 116.81 32.9066 117.929 32.4945C119.046 32.0568 120.105 31.4867 121.082 30.7969C121.239 30.6892 121.431 30.6441 121.62 30.6708C121.809 30.6975 121.981 30.794 122.1 30.9407L125.774 35.4473C125.896 35.5968 125.954 35.7867 125.938 35.9777C125.921 36.1687 125.831 36.3462 125.686 36.4732C124.521 37.5011 123.053 38.3577 121.279 39.043C119.227 39.8368 116.8 40.2337 113.999 40.2337C110.563 40.2337 107.594 39.5917 105.093 38.3078C102.591 37.0239 100.689 35.2776 99.3867 33.069C98.087 30.8623 97.4368 28.4083 97.4362 25.7069C97.4128 23.1617 98.05 20.6529 99.2871 18.4192C100.521 16.1966 102.307 14.4173 104.645 13.0811C106.983 11.745 109.719 11.0786 112.852 11.0819C115.988 11.0819 118.708 11.7483 121.01 13.0811C123.257 14.3632 125.087 16.2507 126.285 18.5224C127.504 20.8137 128.113 23.3418 128.112 26.1067C128.115 26.72 128.071 27.3325 127.981 27.9393C127.952 28.115 127.86 28.2746 127.722 28.3895C127.584 28.5044 127.409 28.5671 127.229 28.5664L127.232 28.5634ZM108.621 19.4937C107.676 20.1293 106.933 21.0158 106.478 22.0506C106.443 22.1304 106.428 22.2175 106.436 22.304C106.443 22.3906 106.473 22.474 106.521 22.5467C106.569 22.6186 106.635 22.6776 106.712 22.7184C106.789 22.7592 106.875 22.7804 106.963 22.7799H118.751C118.838 22.7798 118.923 22.7587 118.999 22.7186C119.076 22.6785 119.141 22.6205 119.189 22.5497C119.237 22.4785 119.267 22.3968 119.277 22.3116C119.285 22.2269 119.272 22.1415 119.24 22.0625C118.806 21.0206 118.072 20.1272 117.128 19.4927C115.977 18.7181 114.548 18.3309 112.841 18.3309C111.181 18.3348 109.775 18.7241 108.624 19.4987L108.621 19.4937Z" fill="#010B40"/>
<path d="M206.983 28.5634H186.794C186.705 28.5633 186.617 28.5855 186.539 28.628C186.46 28.6705 186.394 28.7319 186.346 28.8065C186.298 28.881 186.271 28.9664 186.266 29.0546C186.261 29.1429 186.279 29.231 186.318 29.3106C186.87 30.3992 187.731 31.3066 188.795 31.923C190.13 32.7168 191.782 33.1137 193.749 33.1137C195.251 33.1137 196.559 32.9073 197.673 32.4945C198.79 32.057 199.849 31.4869 200.826 30.7969C200.983 30.6893 201.176 30.6443 201.365 30.671C201.554 30.6977 201.726 30.7941 201.846 30.9407L205.521 35.4473C205.642 35.5973 205.7 35.7872 205.683 35.978C205.666 36.1689 205.576 36.3461 205.431 36.4732C204.266 37.5012 202.798 38.3578 201.024 39.043C198.972 39.8368 196.545 40.2337 193.742 40.2337C190.307 40.2337 187.338 39.5917 184.836 38.3078C182.333 37.0239 180.432 35.278 179.131 33.07C177.834 30.8594 177.186 28.4034 177.186 25.7019C177.162 23.1563 177.799 20.6468 179.035 18.4122C180.27 16.1884 182.056 14.409 184.394 13.0742C186.732 11.7394 189.467 11.0729 192.6 11.0749C195.735 11.0749 198.455 11.7414 200.757 13.0742C203.006 14.3554 204.838 16.2435 206.037 18.5164C207.255 20.8071 207.864 23.3352 207.864 26.1008C207.866 26.714 207.822 27.3266 207.732 27.9334C207.703 28.1088 207.612 28.2684 207.475 28.3842C207.339 28.5 207.165 28.5645 206.985 28.5664L206.983 28.5634ZM188.372 19.4937C187.427 20.1293 186.684 21.0158 186.229 22.0506C186.194 22.13 186.18 22.2166 186.188 22.3027C186.195 22.3888 186.224 22.4717 186.272 22.5438C186.32 22.6161 186.385 22.6754 186.462 22.7163C186.539 22.7572 186.625 22.7784 186.713 22.7779H198.501C198.588 22.7789 198.674 22.758 198.75 22.7174C198.827 22.6774 198.892 22.619 198.94 22.5477C198.988 22.4769 199.018 22.3954 199.027 22.3106C199.036 22.2255 199.023 22.1395 198.989 22.0606C198.555 21.0185 197.821 20.125 196.877 19.4908C195.725 18.7162 194.296 18.3289 192.589 18.3289C190.931 18.3329 189.527 18.7221 188.376 19.4967L188.372 19.4937Z" fill="#010B40"/>
<path d="M170.071 12.4084C171.759 13.2735 173.157 14.6036 174.094 16.2373C175.06 17.9009 175.544 19.8364 175.546 22.0437V38.8416C175.545 39.0385 175.466 39.2272 175.325 39.3666C175.183 39.5059 174.992 39.5847 174.793 39.5857H167.391C167.191 39.5847 167 39.5059 166.859 39.3666C166.718 39.2272 166.638 39.0385 166.637 38.8416V23.527C166.637 22.0427 166.237 20.8977 165.437 20.092C164.637 19.2863 163.536 18.8832 162.135 18.8825C160.732 18.8825 159.54 19.2794 158.556 20.0732C157.573 20.8669 157.081 22.0027 157.081 23.4804V38.8456C157.081 38.9432 157.061 39.0398 157.024 39.13C156.986 39.2202 156.931 39.3022 156.861 39.3713C156.791 39.4405 156.708 39.4953 156.616 39.5328C156.525 39.5702 156.427 39.5896 156.328 39.5897H148.927C148.728 39.5887 148.536 39.5099 148.395 39.3705C148.254 39.2312 148.175 39.0425 148.174 38.8456V23.527C148.174 22.0427 147.79 20.8977 147.023 20.092C146.256 19.2863 145.172 18.8832 143.771 18.8825C142.336 18.8825 141.127 19.2794 140.142 20.0732C139.158 20.8669 138.666 22.0033 138.667 23.4824V38.8456C138.667 38.9432 138.647 39.04 138.609 39.1303C138.572 39.2205 138.516 39.3026 138.446 39.3717C138.376 39.4408 138.293 39.4956 138.202 39.5331C138.11 39.5705 138.012 39.5897 137.913 39.5897H130.512C130.312 39.5892 130.121 39.5106 129.98 39.3711C129.838 39.2316 129.759 39.0427 129.759 38.8456V12.461C129.759 12.2639 129.838 12.0749 129.98 11.9354C130.121 11.796 130.312 11.7174 130.512 11.7168H137.412C137.511 11.7168 137.609 11.7361 137.701 11.7735C137.792 11.8109 137.875 11.8658 137.945 11.9349C138.015 12.004 138.071 12.086 138.109 12.1763C138.146 12.2666 138.166 12.3633 138.166 12.461V12.8489C138.166 12.9562 138.196 13.0614 138.253 13.1526C138.296 13.2204 138.354 13.2783 138.422 13.3224C138.489 13.3665 138.566 13.3958 138.646 13.4083C138.726 13.4208 138.808 13.4162 138.887 13.3949C138.965 13.3735 139.038 13.3359 139.1 13.2845C139.876 12.6443 140.762 12.1466 141.716 11.8151C143.112 11.3217 144.584 11.0712 146.067 11.0749C147.744 11.0564 149.407 11.3842 150.947 12.0373C152.155 12.5525 153.245 13.3027 154.152 14.243C154.221 14.3144 154.304 14.3715 154.396 14.4107C154.487 14.4501 154.586 14.4714 154.685 14.4732C154.785 14.4748 154.884 14.4566 154.976 14.4196C155.069 14.3831 155.153 14.3288 155.225 14.2599C156.288 13.2302 157.569 12.446 158.977 11.9639C160.648 11.3751 162.408 11.0731 164.183 11.0709C166.392 11.0736 168.354 11.5194 170.071 12.4084Z" fill="#010B40"/>
<path d="M223.093 33.5066C224.359 33.5066 225.401 33.2926 226.219 32.8646C227.037 32.4366 227.446 31.8933 227.444 31.2344C227.444 30.9318 227.291 30.6659 226.97 30.4178C226.649 30.1698 226.159 29.9981 225.493 29.8999L218.733 28.8611C215.562 28.367 213.185 27.3781 211.602 25.8944C210.018 24.4107 209.226 22.5828 209.225 20.4105C209.225 17.5133 210.393 15.2312 212.728 13.5644C215.064 11.8975 218.3 11.066 222.437 11.07C224.733 11.0821 227.018 11.3724 229.242 11.9342C231.282 12.4322 233.232 13.2324 235.029 14.3075C235.116 14.3604 235.192 14.4303 235.251 14.5129C235.31 14.5959 235.352 14.6897 235.374 14.7887C235.394 14.887 235.394 14.9882 235.374 15.0864C235.354 15.1859 235.313 15.2801 235.254 15.3632L232.057 19.9611C231.946 20.117 231.779 20.2254 231.589 20.2645C231.4 20.3035 231.203 20.2703 231.038 20.1714C229.88 19.5023 228.647 18.9695 227.363 18.5839C225.705 18.0597 223.974 17.792 222.233 17.7901C221.17 17.7714 220.114 17.9647 219.129 18.3587C218.229 18.7377 217.779 19.1739 217.779 19.6674C217.779 20.0642 218.004 20.395 218.454 20.6596C218.904 20.9242 219.68 21.1381 220.781 21.3015L226.736 22.1409C229.872 22.604 232.199 23.5512 233.717 24.9826C235.234 26.414 235.994 28.2502 235.994 30.4913C235.994 32.5021 235.452 34.2481 234.368 35.7291C233.283 37.2101 231.756 38.3455 229.786 39.1353C227.817 39.9291 225.532 40.326 222.931 40.326C220.163 40.3218 217.409 39.9392 214.747 39.1889C212.345 38.5195 210.355 37.6447 208.777 36.5645C208.613 36.4533 208.5 36.2828 208.462 36.0898C208.424 35.8969 208.465 35.697 208.576 35.5336L211.804 30.7711C211.859 30.6894 211.929 30.6196 212.012 30.5657C212.094 30.5117 212.187 30.4743 212.284 30.4556C212.381 30.4369 212.481 30.4372 212.578 30.4566C212.675 30.476 212.767 30.5141 212.849 30.5687C215.842 32.5273 219.257 33.5066 223.093 33.5066Z" fill="#010B40"/>
<path fill-rule="evenodd" clip-rule="evenodd" d="M21.6462 56.3261C21.3227 56.6 20.9463 56.8062 20.5397 56.9324C20.061 57.0692 19.5642 57.1344 19.0659 57.1258C18.4235 57.1363 17.789 56.9843 17.223 56.6843C16.697 56.4018 16.2599 55.982 15.9595 55.4709C15.6506 54.9328 15.4929 54.3231 15.5028 53.7047C15.4927 53.0879 15.6471 52.4792 15.9505 51.9396C16.2432 51.4237 16.6745 50.9973 17.1969 50.7073C17.7442 50.409 18.3611 50.2568 18.9865 50.2658C19.4668 50.2594 19.9443 50.3405 20.3948 50.5049C20.7851 50.64 21.1413 50.8566 21.439 51.1399L20.9209 51.8106C20.6789 51.5901 20.3957 51.4182 20.087 51.3046C19.7385 51.1671 19.3657 51.0996 18.9905 51.1062C18.5327 51.1006 18.0815 51.2146 17.6827 51.4366C17.2927 51.6566 16.9712 51.9778 16.7532 52.3653C16.532 52.7783 16.417 53.2386 16.4184 53.7057C16.4199 54.1729 16.5376 54.6325 16.7613 55.0442C16.9843 55.4321 17.3129 55.7507 17.7099 55.964C18.136 56.1887 18.613 56.3027 19.0961 56.2954C19.4085 56.3005 19.7205 56.2696 20.0256 56.2031C20.2922 56.1343 20.5466 56.0259 20.7801 55.8816V54.1155H18.8155V53.3069H21.6492L21.6462 56.3261ZM5.70378 57.0068V50.3858H4.82659V53.0529H0.8782V50.3858H0V57.0068H0.8782V53.8705H4.82659V57.0068H5.70378ZM11.2366 57.0068V50.3858H10.3594V57.0068H11.2366ZM30.8759 57.0068H31.7541V50.3858H30.8759V53.0529H26.9275V50.3858H26.0503V57.0068H26.9275V53.8705H30.8759V57.0068ZM48.3343 53.6958C48.3396 54.2211 48.232 54.7416 48.0184 55.2228C47.8253 55.666 47.531 56.0593 47.1584 56.3718L48.0003 57.494L47.3857 57.999L46.4914 56.8034C46.0252 57.0206 45.5151 57.1309 44.9996 57.1258C44.3962 57.1348 43.8017 56.9822 43.2794 56.6843C42.7781 56.3917 42.3684 55.9684 42.0954 55.4609C41.8123 54.9144 41.6648 54.3095 41.6648 53.6958C41.6648 53.0821 41.8123 52.4772 42.0954 51.9307C42.3687 51.4234 42.7783 51.0002 43.2794 50.7073C43.8017 50.4094 44.3962 50.2568 44.9996 50.2658C45.5998 50.2561 46.1912 50.4088 46.7097 50.7073C47.2147 50.9981 47.6278 51.4217 47.9028 51.9307C48.1937 52.4741 48.3405 53.0814 48.3293 53.6958H48.3343ZM44.9996 56.2894C45.3292 56.2923 45.6556 56.2246 45.9562 56.091L45.1837 55.0611L45.7872 54.5551L46.6212 55.6683C46.8761 55.424 47.0763 55.1295 47.2086 54.8041C47.3527 54.4503 47.4244 54.072 47.4199 53.6909C47.4277 53.2273 47.3189 52.7692 47.103 52.3573C46.9118 51.9737 46.6138 51.6515 46.2439 51.4286C45.9648 51.2589 45.6531 51.1479 45.3284 51.1029C45.0037 51.0578 44.673 51.0796 44.3572 51.1669C44.0415 51.2541 43.7475 51.405 43.4937 51.6098C43.24 51.8147 43.0321 52.0693 42.883 52.3573C42.6733 52.771 42.568 53.2285 42.5762 53.6909C42.5685 54.1561 42.6737 54.6163 42.883 55.0333C43.0813 55.4158 43.3843 55.7359 43.7578 55.957C44.1312 56.1782 44.56 56.2916 44.9955 56.2845L44.9996 56.2894ZM53.7423 56.8222C54.1888 57.0224 54.6734 57.1259 55.1638 57.1259C55.6541 57.1259 56.1388 57.0224 56.5852 56.8222C56.982 56.6259 57.3116 56.3188 57.5328 55.9392C57.7628 55.5289 57.8777 55.0655 57.8658 54.5967V50.3858H56.9886V54.4955C56.9886 55.0545 56.8249 55.493 56.4977 55.8112C56.1704 56.1294 55.7258 56.2888 55.1638 56.2894C54.6078 56.2894 54.1632 56.13 53.8299 55.8112C53.4966 55.4924 53.3326 55.0538 53.338 54.4955V50.3858H52.4608V54.5967C52.4504 55.0653 52.5652 55.5283 52.7937 55.9392C53.017 56.3159 53.3442 56.6221 53.7373 56.8222H53.7423ZM66.2555 55.2407H63.0968L62.4127 57.0068H61.5003L64.15 50.3858H65.2234L67.864 57.0068H66.9335L66.2555 55.2407ZM65.9537 54.4469L64.6811 51.1647L63.4126 54.4499L65.9537 54.4469ZM76.5907 57.0068V56.1783H72.756V50.3858H71.8788V57.0068H76.5907ZM81.6014 57.0068H80.7242V50.3858H81.6014V57.0068ZM88.8312 51.2133H91.0594V50.3858H85.7278V51.2133H87.958V57.0068H88.8362L88.8312 51.2133ZM97.911 54.7446V57.0068H97.0338V54.7624L94.4274 50.3858H95.4454L97.4814 53.8893L99.5175 50.3858H100.5L97.911 54.7446ZM114.238 50.6428C113.883 50.4623 113.487 50.3738 113.088 50.3858H110.008V57.0068H110.886V54.3279H113.088C113.483 54.3388 113.875 54.2532 114.229 54.0788C114.538 53.92 114.791 53.6736 114.957 53.3714C115.124 53.0567 115.209 52.7056 115.202 52.3504C115.21 51.9982 115.125 51.6502 114.957 51.3394C114.794 51.0412 114.543 50.7985 114.238 50.6428ZM113.983 53.1997C113.767 53.4081 113.459 53.5123 113.062 53.5123H110.886V51.2044H113.062C113.459 51.2044 113.766 51.3086 113.983 51.5169C114.096 51.6246 114.185 51.7551 114.242 51.8994C114.299 52.0437 114.325 52.1986 114.316 52.3534C114.324 52.5096 114.299 52.6658 114.241 52.8116C114.184 52.9575 114.096 53.0897 113.983 53.1997ZM122.122 54.2018H120.201V57.0068H119.333V50.3858H122.64C123 50.3773 123.355 50.4662 123.667 50.6428C123.957 50.8 124.194 51.0363 124.352 51.3235C124.512 51.6238 124.594 51.9593 124.588 52.2988C124.598 52.7367 124.456 53.1647 124.186 53.5123C123.915 53.8508 123.528 54.0796 123.097 54.1552L124.975 57.0068H123.931L122.122 54.2018ZM120.201 53.3932H122.509C122.878 53.3932 123.167 53.294 123.378 53.0896C123.587 52.8771 123.704 52.5932 123.705 52.2974C123.707 52.0016 123.592 51.7166 123.386 51.5021C123.176 51.3036 122.883 51.2044 122.509 51.2044H120.201V53.3932ZM129.016 57.0068H134.036L133.878 56.1972H129.894V53.9538H132.57V53.1352H129.894V51.1945H133.79L133.947 50.3858H129.018L129.016 57.0068ZM145.173 57.0068H144.322V51.507L141.927 56.8649H141.323L138.954 51.5953V57.0028H138.103V50.3819H139.288L141.639 55.6504L143.991 50.3819H145.175L145.173 57.0068ZM149.826 57.0068H150.704V50.3858H149.825L149.826 57.0068ZM157.933 57.1258C157.441 57.136 156.954 57.032 156.511 56.8222C156.117 56.6226 155.788 56.3163 155.564 55.9392C155.335 55.5283 155.22 55.0653 155.231 54.5967V50.3858H156.108V54.4955C156.108 55.0545 156.271 55.493 156.599 55.8112C156.926 56.1294 157.371 56.2888 157.933 56.2894C158.494 56.2894 158.939 56.13 159.266 55.8112C159.594 55.4924 159.758 55.0538 159.757 54.4955V50.3858H160.636V54.5967C160.647 55.0655 160.532 55.5289 160.302 55.9392C160.08 56.3188 159.751 56.6259 159.354 56.8222C158.911 57.032 158.424 57.136 157.933 57.1258ZM171.336 57.0068H172.187V50.3858H171.002L168.65 55.6544L166.299 50.3858H165.115V57.0068H165.966V51.5993L168.335 56.8689H168.939L171.335 51.511L171.336 57.0068ZM187.037 51.2133H184.809V57.0068H183.932V51.2133H181.702V50.3858H187.034L187.037 51.2133ZM195.934 57.0068H196.811V50.3858H195.934V53.0529H191.985V50.3858H191.108V57.0068H191.985V53.8705H195.934V57.0068ZM206.428 57.0068H201.409V50.3858H206.338L206.18 51.1945H202.284V53.1352H204.961V53.9538H202.284V56.1972H206.268L206.428 57.0068ZM216.715 57.0068H217.566V50.3858H216.381L214.03 55.6544L211.678 50.3858H210.493V57.0068H211.345V51.5993L213.714 56.8689H214.318L216.714 51.511L216.715 57.0068ZM227.185 57.0068H222.166V50.3858H227.095L226.937 51.1945H223.041V53.1352H225.717V53.9538H223.041V56.1972H227.025L227.185 57.0068ZM231.876 56.8322C232.385 57.0116 232.923 57.1016 233.464 57.0981C233.916 57.1071 234.364 57.0226 234.781 56.85C235.139 56.7062 235.449 56.4655 235.675 56.1555C235.893 55.8453 236.007 55.4753 236 55.0978C236.011 54.6644 235.847 54.2446 235.544 53.93C235.246 53.6105 234.795 53.3899 234.192 53.2682L232.912 53.0102C232.49 52.9249 232.186 52.8114 231.998 52.6699C231.913 52.6064 231.845 52.5243 231.798 52.4301C231.75 52.3359 231.726 52.2322 231.727 52.1272C231.727 51.9309 231.806 51.7427 231.946 51.6033C232.11 51.4332 232.315 51.3066 232.542 51.2352C232.813 51.1405 233.098 51.0938 233.385 51.0972C233.727 51.0988 234.066 51.1613 234.385 51.2818C234.736 51.4047 235.058 51.5953 235.333 51.8424L235.851 51.1717C235.531 50.8632 235.144 50.6304 234.719 50.491C234.298 50.3501 233.856 50.2787 233.412 50.2797C232.958 50.2725 232.508 50.3538 232.087 50.5188C231.727 50.6522 231.411 50.8812 231.174 51.1806C230.951 51.471 230.833 51.8272 230.84 52.1916C230.834 52.3906 230.869 52.5887 230.943 52.7739C231.017 52.959 231.128 53.1272 231.271 53.2682C231.563 53.55 231.99 53.7484 232.552 53.8635L233.885 54.1304C234.307 54.2157 234.616 54.3444 234.815 54.5164C234.911 54.5923 234.988 54.6891 235.041 54.7992C235.093 54.9093 235.119 55.0298 235.117 55.1514C235.119 55.3673 235.041 55.5765 234.897 55.7397C234.738 55.9185 234.536 56.055 234.31 56.1366C234.043 56.2323 233.76 56.279 233.476 56.2745C232.635 56.2793 231.824 55.9706 231.204 55.4103L230.65 56.1049C231.004 56.4271 231.421 56.6745 231.876 56.8322ZM38.0504 54.5253L38.2174 53.6928H35.8172L35.6502 54.5253H38.0504Z" fill="#010B40"/>
</g>
<defs>
<clipPath id="clip0_601_4687">
<rect width="236" height="58" fill="white"/>
</clipPath>
</defs>
</svg>
