<svg width="142" height="40" viewBox="0 0 142 40" fill="none" xmlns="http://www.w3.org/2000/svg">
<path d="M0 8C0 3.58172 3.58172 0 8 0H133.845C138.264 0 141.845 3.58172 141.845 8V31.3485C141.845 35.7668 138.264 39.3485 133.845 39.3485H8C3.58173 39.3485 0 35.7668 0 31.3485V8Z" fill="#3B82F6"/>
<path d="M20.1535 22.8249L18.2153 19.4679L18.1125 19.29L17.8416 18.8204L17.5704 19.29L17.4676 19.4679L14.0046 25.466L13.9702 25.5254L13.88 25.6818L13.9704 25.8384L14.0046 25.8976L15.9428 29.2546L16.0453 29.4327L16.3165 29.9021L16.5877 29.4327L16.6904 29.2546L20.1535 23.2564L20.1876 23.1971L20.2781 23.0407L20.1876 22.884L20.1535 22.8249Z" fill="#84D5F7"/>
<path d="M17.1249 19.0762L17.3961 18.6068H16.8539H16.6484H9.70027H9.49479H8.95264L9.22383 19.0762L9.32656 19.2543L12.8005 25.2715L12.9033 25.4494L13.1742 25.919L13.4454 25.4494L13.5482 25.2715L17.0221 19.2543L17.1249 19.0762Z" fill="#438CCB"/>
<path d="M9.74935 18.1141H13.2233H13.4288H13.971L13.6998 17.6445L13.597 17.4666L11.8601 14.4579L11.7574 14.28L11.4862 13.8104L11.2153 14.28L11.1125 14.4579L9.37542 17.4666L9.27268 17.6445L9.0015 18.1141H9.54387H9.74935Z" fill="#84D5F7"/>
<path d="M12.8783 15.2364L14.4152 17.8984L14.4496 17.9578L14.5398 18.1144H14.7205H14.7891H16.3926H16.4609H16.6416L16.7321 17.9578L16.7663 17.8986L18.6845 14.576L18.7189 14.5166L18.8092 14.3602L18.7189 14.2036L18.6845 14.1442L16.3459 10.0937L16.2432 9.91563L15.972 9.4462L15.701 9.91563L15.5983 10.0937L12.8783 14.8047L12.8439 14.8641L12.7537 15.0207L12.8439 15.1771L12.8783 15.2364Z" fill="#55A6D7"/>
<path d="M23.3505 18.6068H23.145H19.0349H18.8295H18.2871L18.5583 19.0762L18.661 19.2543L20.7162 22.8137L20.8189 22.9916L21.0899 23.4613L21.3611 22.9916L21.4638 22.8137L23.5187 19.2543L23.6215 19.0762L23.8927 18.6068H23.3505Z" fill="#55A6D7"/>
<path d="M17.4817 17.6445L17.2107 18.1142H17.7529H17.9584H23.0958H23.3013H23.8437L23.5725 17.6445L23.4697 17.4666L20.9009 13.0172L20.7982 12.8393L20.5272 12.3699L20.256 12.8393L20.1533 13.0172L17.5844 17.4666L17.4817 17.6445Z" fill="#62BFEC"/>
<path d="M20.527 10.9239L19.0938 13.4067L15.972 8L12.6435 13.7653L12.4683 14.0671L11.4851 12.3646L8 18.4037L13.1743 27.3652L13.5955 26.6356L16.3166 31.3485L20.5627 23.9944L21.09 24.9077L24.8452 18.4037L20.527 10.9239ZM23.3191 19.1385L21.0898 23.0006L18.6861 18.8386H23.4935L23.3182 19.1404L23.3191 19.1385ZM9.40063 17.8839L9.57587 17.5821L11.4871 14.2715L13.5727 17.8839H9.40063ZM16.5087 17.8839H14.6728L13.0198 15.0207L15.972 9.90708L18.5433 14.3602L16.5087 17.8839ZM16.997 18.8375L13.1743 25.4584L9.35178 18.8375H16.997ZM17.8417 19.2815L20.012 23.0409L16.3166 29.4414L14.1462 25.6822L17.8417 19.2815ZM20.3529 13.1327L20.5281 12.8308L23.4446 17.8839H17.6097L20.3529 13.1327V13.1327Z" fill="#002C3B"/>
<path d="M36.5652 15.2743C37.0452 15.2743 37.4892 15.3943 37.8972 15.6343C38.3052 15.8663 38.6252 16.1863 38.8572 16.5943C39.0972 16.9943 39.2172 17.4343 39.2172 17.9143C39.2172 18.3943 39.0972 18.8383 38.8572 19.2463C38.6252 19.6543 38.3052 19.9783 37.8972 20.2183C37.4892 20.4503 37.0452 20.5663 36.5652 20.5663H34.7772V23.6743H33.6732V15.2743H36.5652ZM36.5652 19.5223C36.8532 19.5223 37.1172 19.4503 37.3572 19.3063C37.6052 19.1623 37.8012 18.9663 37.9452 18.7183C38.0892 18.4703 38.1612 18.2023 38.1612 17.9143C38.1612 17.6263 38.0892 17.3623 37.9452 17.1223C37.8012 16.8743 37.6052 16.6783 37.3572 16.5343C37.1172 16.3903 36.8532 16.3183 36.5652 16.3183H34.7772V19.5223H36.5652ZM42.5955 23.8183C42.0275 23.8183 41.4995 23.6783 41.0115 23.3983C40.5315 23.1183 40.1515 22.7383 39.8715 22.2583C39.5915 21.7703 39.4515 21.2423 39.4515 20.6743C39.4515 20.1063 39.5915 19.5823 39.8715 19.1023C40.1515 18.6223 40.5315 18.2423 41.0115 17.9623C41.4995 17.6823 42.0275 17.5423 42.5955 17.5423C43.1635 17.5423 43.6875 17.6823 44.1675 17.9623C44.6475 18.2423 45.0275 18.6223 45.3075 19.1023C45.5875 19.5823 45.7275 20.1063 45.7275 20.6743C45.7275 21.2423 45.5875 21.7703 45.3075 22.2583C45.0275 22.7383 44.6475 23.1183 44.1675 23.3983C43.6875 23.6783 43.1635 23.8183 42.5955 23.8183ZM42.5835 22.7863C42.9675 22.7863 43.3195 22.6943 43.6395 22.5103C43.9675 22.3183 44.2235 22.0623 44.4075 21.7423C44.5995 21.4143 44.6955 21.0583 44.6955 20.6743C44.6955 20.2903 44.5995 19.9383 44.4075 19.6183C44.2235 19.2983 43.9675 19.0463 43.6395 18.8623C43.3195 18.6703 42.9675 18.5743 42.5835 18.5743C42.1995 18.5743 41.8435 18.6703 41.5155 18.8623C41.1955 19.0463 40.9395 19.2983 40.7475 19.6183C40.5635 19.9383 40.4715 20.2903 40.4715 20.6743C40.4715 21.0583 40.5635 21.4143 40.7475 21.7423C40.9395 22.0623 41.1955 22.3183 41.5155 22.5103C41.8435 22.6943 42.1995 22.7863 42.5835 22.7863ZM52.1187 22.0903L53.4987 17.6743H54.5907L52.6467 23.6743H51.5907L50.1987 19.3303L48.8187 23.6743H47.7747L45.9027 17.6743H46.9827L48.3027 22.0903L49.6347 17.6743H50.7507L52.1187 22.0903ZM57.8733 17.5303C58.4573 17.5303 58.9773 17.6743 59.4333 17.9623C59.8893 18.2423 60.2413 18.6263 60.4893 19.1143C60.7453 19.5943 60.8733 20.1183 60.8733 20.6863C60.8733 20.8063 60.8613 20.9383 60.8373 21.0823H55.7853C55.8493 21.6103 56.0813 22.0463 56.4813 22.3903C56.8813 22.7343 57.3813 22.9063 57.9813 22.9063C58.3413 22.9063 58.6853 22.8223 59.0133 22.6543C59.3493 22.4863 59.5973 22.2783 59.7573 22.0303L60.5733 22.5103C60.3093 22.9263 59.9493 23.2503 59.4933 23.4823C59.0453 23.7063 58.5333 23.8183 57.9573 23.8183C57.3253 23.8183 56.7653 23.6823 56.2773 23.4103C55.7893 23.1383 55.4093 22.7663 55.1373 22.2943C54.8733 21.8143 54.7413 21.2743 54.7413 20.6743C54.7413 20.0823 54.8733 19.5503 55.1373 19.0783C55.4013 18.5983 55.7693 18.2223 56.2413 17.9503C56.7213 17.6703 57.2653 17.5303 57.8733 17.5303ZM59.8893 20.2423C59.8173 19.6823 59.6013 19.2423 59.2413 18.9223C58.8893 18.6023 58.4293 18.4423 57.8613 18.4423C57.4693 18.4423 57.1133 18.5263 56.7933 18.6943C56.4733 18.8623 56.2213 19.0863 56.0373 19.3663C55.8613 19.6383 55.7733 19.9303 55.7733 20.2423H59.8893ZM64.5497 17.6743C64.6377 17.6743 64.7057 17.6783 64.7537 17.6863L64.6697 18.6703C64.6217 18.6543 64.5457 18.6463 64.4417 18.6463C63.9297 18.6463 63.4977 18.7903 63.1457 19.0783C62.8017 19.3663 62.6297 19.8023 62.6297 20.3863V23.6743H61.5977V17.6743H62.6297V18.8023C62.7657 18.4823 62.9977 18.2143 63.3257 17.9983C63.6617 17.7823 64.0697 17.6743 64.5497 17.6743ZM67.9483 17.5303C68.5323 17.5303 69.0523 17.6743 69.5083 17.9623C69.9643 18.2423 70.3163 18.6263 70.5643 19.1143C70.8203 19.5943 70.9483 20.1183 70.9483 20.6863C70.9483 20.8063 70.9363 20.9383 70.9123 21.0823H65.8603C65.9243 21.6103 66.1563 22.0463 66.5563 22.3903C66.9563 22.7343 67.4563 22.9063 68.0563 22.9063C68.4163 22.9063 68.7603 22.8223 69.0883 22.6543C69.4243 22.4863 69.6723 22.2783 69.8323 22.0303L70.6483 22.5103C70.3843 22.9263 70.0243 23.2503 69.5683 23.4823C69.1203 23.7063 68.6083 23.8183 68.0323 23.8183C67.4003 23.8183 66.8403 23.6823 66.3523 23.4103C65.8643 23.1383 65.4843 22.7663 65.2123 22.2943C64.9483 21.8143 64.8163 21.2743 64.8163 20.6743C64.8163 20.0823 64.9483 19.5503 65.2123 19.0783C65.4763 18.5983 65.8443 18.2223 66.3163 17.9503C66.7963 17.6703 67.3403 17.5303 67.9483 17.5303ZM69.9643 20.2423C69.8923 19.6823 69.6763 19.2423 69.3163 18.9223C68.9643 18.6023 68.5043 18.4423 67.9363 18.4423C67.5443 18.4423 67.1883 18.5263 66.8683 18.6943C66.5483 18.8623 66.2963 19.0863 66.1123 19.3663C65.9363 19.6383 65.8483 19.9303 65.8483 20.2423H69.9643ZM76.5344 15.2743H77.5784V23.6743H76.5344V22.6783C76.2944 23.0383 75.9944 23.3223 75.6344 23.5303C75.2824 23.7303 74.8784 23.8303 74.4224 23.8303C73.8384 23.8303 73.3224 23.6943 72.8744 23.4223C72.4344 23.1423 72.0944 22.7663 71.8544 22.2943C71.6144 21.8143 71.4944 21.2783 71.4944 20.6863C71.4944 20.0943 71.6144 19.5623 71.8544 19.0903C72.0944 18.6103 72.4344 18.2343 72.8744 17.9623C73.3224 17.6823 73.8384 17.5423 74.4224 17.5423C74.8784 17.5423 75.2824 17.6463 75.6344 17.8543C75.9944 18.0543 76.2944 18.3343 76.5344 18.6943V15.2743ZM74.4464 22.8463C74.8384 22.8463 75.1944 22.7543 75.5144 22.5703C75.8344 22.3783 76.0824 22.1183 76.2584 21.7903C76.4424 21.4543 76.5344 21.0823 76.5344 20.6743C76.5344 20.2743 76.4424 19.9103 76.2584 19.5823C76.0824 19.2543 75.8344 18.9983 75.5144 18.8143C75.1944 18.6223 74.8384 18.5263 74.4464 18.5263C74.0704 18.5263 73.7344 18.6223 73.4384 18.8143C73.1424 19.0063 72.9104 19.2703 72.7424 19.6063C72.5824 19.9343 72.5024 20.2943 72.5024 20.6863C72.5024 21.0783 72.5824 21.4423 72.7424 21.7783C72.9104 22.1063 73.1424 22.3663 73.4384 22.5583C73.7344 22.7503 74.0704 22.8463 74.4464 22.8463ZM84.5533 17.5423C85.1373 17.5423 85.6493 17.6823 86.0893 17.9623C86.5373 18.2343 86.8813 18.6103 87.1213 19.0903C87.3613 19.5623 87.4813 20.0943 87.4813 20.6863C87.4813 21.2783 87.3613 21.8143 87.1213 22.2943C86.8813 22.7663 86.5373 23.1423 86.0893 23.4223C85.6493 23.6943 85.1373 23.8303 84.5533 23.8303C84.0893 23.8303 83.6773 23.7263 83.3173 23.5183C82.9573 23.3023 82.6573 23.0103 82.4173 22.6423V23.6743H81.3853V15.2743H82.4173V18.7303C82.6573 18.3623 82.9573 18.0743 83.3173 17.8663C83.6773 17.6503 84.0893 17.5423 84.5533 17.5423ZM84.5293 22.8463C84.9053 22.8463 85.2413 22.7503 85.5373 22.5583C85.8333 22.3663 86.0613 22.1063 86.2213 21.7783C86.3893 21.4423 86.4733 21.0783 86.4733 20.6863C86.4733 20.2943 86.3893 19.9343 86.2213 19.6063C86.0613 19.2703 85.8333 19.0063 85.5373 18.8143C85.2413 18.6223 84.9053 18.5263 84.5293 18.5263C84.1373 18.5263 83.7813 18.6223 83.4613 18.8143C83.1413 18.9983 82.8893 19.2543 82.7053 19.5823C82.5293 19.9103 82.4413 20.2743 82.4413 20.6743C82.4413 21.0823 82.5293 21.4543 82.7053 21.7903C82.8893 22.1183 83.1413 22.3783 83.4613 22.5703C83.7813 22.7543 84.1373 22.8463 84.5293 22.8463ZM92.4328 17.6743H93.5248L91.2448 23.8903C90.9568 24.6263 90.5648 25.1863 90.0688 25.5703C89.5808 25.9623 89.0168 26.1303 88.3768 26.0743V25.0783L88.5328 25.0903C89.2768 25.0903 89.8528 24.5783 90.2608 23.5543L87.5368 17.6743H88.6648L90.7648 22.1863L92.4328 17.6743ZM103.953 23.6743H102.777L102.057 21.7543H98.3371L97.6171 23.6743H96.4411L99.5971 15.2743H100.785L103.953 23.6743ZM100.197 16.8223L98.7331 20.7223H101.673L100.197 16.8223ZM105.567 22.4023C105.567 22.5383 105.599 22.6343 105.663 22.6903C105.727 22.7383 105.823 22.7623 105.951 22.7623C106.023 22.7623 106.091 22.7583 106.155 22.7503C106.219 22.7423 106.279 22.7343 106.335 22.7263V23.6743C106.079 23.7143 105.859 23.7343 105.675 23.7343C105.315 23.7343 105.035 23.6423 104.835 23.4583C104.635 23.2663 104.535 22.9343 104.535 22.4623V15.2743H105.567V22.4023ZM108.717 21.8023C108.717 22.1703 108.785 22.4263 108.921 22.5703C109.065 22.7063 109.297 22.7743 109.617 22.7743C109.713 22.7743 109.913 22.7583 110.217 22.7263V23.6743C109.873 23.7143 109.585 23.7343 109.353 23.7343C108.785 23.7343 108.365 23.5983 108.093 23.3263C107.821 23.0543 107.685 22.5663 107.685 21.8623V18.6223H106.365V17.6743H107.685V16.0423L108.717 15.6703V17.6743H110.193V18.6223H108.717V21.8023ZM113.942 23.8183C113.374 23.8183 112.846 23.6783 112.358 23.3983C111.878 23.1183 111.498 22.7383 111.218 22.2583C110.938 21.7703 110.798 21.2423 110.798 20.6743C110.798 20.1063 110.938 19.5823 111.218 19.1023C111.498 18.6223 111.878 18.2423 112.358 17.9623C112.846 17.6823 113.374 17.5423 113.942 17.5423C114.51 17.5423 115.034 17.6823 115.514 17.9623C115.994 18.2423 116.374 18.6223 116.654 19.1023C116.934 19.5823 117.074 20.1063 117.074 20.6743C117.074 21.2423 116.934 21.7703 116.654 22.2583C116.374 22.7383 115.994 23.1183 115.514 23.3983C115.034 23.6783 114.51 23.8183 113.942 23.8183ZM113.93 22.7863C114.314 22.7863 114.666 22.6943 114.986 22.5103C115.314 22.3183 115.57 22.0623 115.754 21.7423C115.946 21.4143 116.042 21.0583 116.042 20.6743C116.042 20.2903 115.946 19.9383 115.754 19.6183C115.57 19.2983 115.314 19.0463 114.986 18.8623C114.666 18.6703 114.314 18.5743 113.93 18.5743C113.546 18.5743 113.19 18.6703 112.862 18.8623C112.542 19.0463 112.286 19.2983 112.094 19.6183C111.91 19.9383 111.818 20.2903 111.818 20.6743C111.818 21.0583 111.91 21.4143 112.094 21.7423C112.286 22.0623 112.542 22.3183 112.862 22.5103C113.19 22.6943 113.546 22.7863 113.93 22.7863ZM122.848 17.6743H123.88V23.3863C123.88 23.9543 123.74 24.4503 123.46 24.8743C123.188 25.3063 122.808 25.6383 122.32 25.8703C121.84 26.1023 121.3 26.2183 120.7 26.2183C120.004 26.2183 119.388 26.0863 118.852 25.8223C118.316 25.5663 117.936 25.2183 117.712 24.7783L118.6 24.2623C118.744 24.5503 118.996 24.7863 119.356 24.9703C119.724 25.1623 120.18 25.2583 120.724 25.2583C121.34 25.2583 121.848 25.0863 122.248 24.7423C122.648 24.3983 122.848 23.9463 122.848 23.3863V22.6543C122.608 23.0223 122.308 23.3103 121.948 23.5183C121.596 23.7263 121.188 23.8303 120.724 23.8303C120.148 23.8303 119.636 23.6943 119.188 23.4223C118.748 23.1423 118.404 22.7623 118.156 22.2823C117.916 21.8023 117.796 21.2703 117.796 20.6863C117.796 20.0943 117.916 19.5623 118.156 19.0903C118.404 18.6103 118.748 18.2343 119.188 17.9623C119.636 17.6823 120.148 17.5423 120.724 17.5423C121.188 17.5423 121.596 17.6463 121.948 17.8543C122.308 18.0623 122.608 18.3503 122.848 18.7183V17.6743ZM120.748 22.8463C121.14 22.8463 121.496 22.7543 121.816 22.5703C122.136 22.3783 122.388 22.1183 122.572 21.7903C122.756 21.4543 122.848 21.0823 122.848 20.6743C122.848 20.2743 122.756 19.9103 122.572 19.5823C122.388 19.2543 122.136 18.9983 121.816 18.8143C121.496 18.6223 121.14 18.5263 120.748 18.5263C120.372 18.5263 120.036 18.6223 119.74 18.8143C119.444 19.0063 119.216 19.2703 119.056 19.6063C118.896 19.9343 118.816 20.2943 118.816 20.6863C118.816 21.0783 118.896 21.4423 119.056 21.7783C119.216 22.1063 119.444 22.3663 119.74 22.5583C120.036 22.7503 120.372 22.8463 120.748 22.8463ZM125.169 23.6743V17.6743H126.213V23.6743H125.169ZM125.709 16.0783C125.541 16.0783 125.393 16.0183 125.265 15.8983C125.145 15.7783 125.085 15.6343 125.085 15.4663C125.085 15.2983 125.145 15.1543 125.265 15.0343C125.393 14.9063 125.541 14.8423 125.709 14.8423C125.877 14.8423 126.021 14.9063 126.141 15.0343C126.261 15.1543 126.321 15.2983 126.321 15.4663C126.321 15.6343 126.261 15.7783 126.141 15.8983C126.021 16.0183 125.877 16.0783 125.709 16.0783ZM132.782 22.5103C132.486 22.9183 132.114 23.2383 131.666 23.4703C131.226 23.7023 130.75 23.8183 130.238 23.8183C129.67 23.8183 129.142 23.6783 128.654 23.3983C128.174 23.1183 127.794 22.7383 127.514 22.2583C127.234 21.7703 127.094 21.2423 127.094 20.6743C127.094 20.1063 127.234 19.5823 127.514 19.1023C127.794 18.6223 128.174 18.2423 128.654 17.9623C129.142 17.6823 129.67 17.5423 130.238 17.5423C130.742 17.5423 131.214 17.6583 131.654 17.8903C132.102 18.1223 132.474 18.4343 132.77 18.8263L131.918 19.4023C131.702 19.1383 131.45 18.9343 131.162 18.7903C130.874 18.6463 130.566 18.5743 130.238 18.5743C129.854 18.5743 129.498 18.6703 129.17 18.8623C128.85 19.0463 128.594 19.2983 128.402 19.6183C128.218 19.9383 128.126 20.2903 128.126 20.6743C128.126 21.0583 128.218 21.4143 128.402 21.7423C128.594 22.0623 128.85 22.3183 129.17 22.5103C129.498 22.6943 129.854 22.7863 130.238 22.7863C130.574 22.7863 130.886 22.7143 131.174 22.5703C131.462 22.4183 131.71 22.2103 131.918 21.9463L132.782 22.5103Z" fill="white"/>
</svg>
