<?xml version="1.0" standalone="no"?>
<!DOCTYPE svg PUBLIC "-//W3C//DTD SVG 20010904//EN"
 "http://www.w3.org/TR/2001/REC-SVG-20010904/DTD/svg10.dtd">
<svg version="1.0" xmlns="http://www.w3.org/2000/svg"
 width="1560.000000pt" height="1560.000000pt" viewBox="0 0 1560.000000 1560.000000"
 preserveAspectRatio="xMidYMid meet">
<metadata>
Created by potrace 1.14, written by Peter Selinger 2001-2017
</metadata>
<g transform="translate(0.000000,1560.000000) scale(0.100000,-0.100000)"
fill="#000000" stroke="none">
<path d="M286 10883 c-2 -3 -10 -6 -18 -7 -40 -8 -68 -19 -68 -27 0 -5 -7 -9
-15 -9 -31 0 -107 -78 -141 -144 -32 -61 -36 -76 -40 -154 -10 -208 153 -370
374 -370 205 0 357 136 377 334 5 61 -35 214 -57 214 -5 0 -8 5 -8 10 0 20
-64 81 -114 109 -28 16 -73 34 -100 40 -45 11 -180 14 -190 4z"/>
<path d="M12545 10876 c-135 -43 -221 -128 -255 -255 -12 -45 -19 -141 -10
-141 3 0 6 -11 6 -24 4 -66 117 -226 159 -226 7 0 15 -4 17 -9 2 -5 30 -18 63
-29 82 -28 209 -24 280 9 28 12 53 22 58 21 4 -1 7 2 7 8 0 6 5 10 11 10 35 0
129 140 144 215 7 38 7 143 0 156 -4 5 -8 18 -10 30 -5 27 -46 96 -77 130 -90
100 -263 146 -393 105z"/>
<path d="M2726 10124 l0 -574 -75 75 c-140 141 -299 226 -515 274 -61 13 -116
17 -226 15 -80 -1 -158 -5 -175 -8 -73 -16 -179 -48 -206 -61 -16 -9 -32 -16
-36 -16 -14 -1 -106 -49 -150 -79 -24 -17 -47 -30 -50 -30 -6 0 -13 -6 -109
-97 -55 -52 -134 -148 -171 -209 -19 -31 -95 -183 -97 -197 -2 -6 -8 -25 -15
-42 -11 -26 -29 -88 -47 -157 -12 -51 -20 -97 -30 -179 -7 -63 -6 -285 2 -344
3 -27 7 -63 9 -80 1 -16 4 -30 5 -30 1 0 4 -13 6 -30 15 -96 111 -345 166
-430 69 -104 166 -218 238 -278 38 -32 163 -113 200 -129 103 -46 130 -57 180
-71 50 -14 98 -23 170 -34 44 -6 234 -5 275 1 54 8 83 14 103 20 9 3 29 7 43
10 47 8 183 69 254 113 74 47 235 205 235 231 0 8 3 12 7 8 4 -4 8 -80 9 -169
1 -89 2 -167 3 -172 1 -7 107 -10 309 -10 l307 0 0 1625 0 1625 -310 1 -310 1
1 -573z m-506 -759 c14 -2 25 -4 25 -5 0 -1 7 -3 15 -5 8 -2 33 -11 55 -21 22
-10 45 -19 52 -20 22 -4 129 -82 172 -127 46 -47 121 -154 121 -173 0 -6 7
-24 15 -41 8 -17 25 -75 36 -129 17 -80 20 -121 16 -214 -6 -119 -7 -126 -28
-200 -7 -25 -13 -51 -15 -58 -1 -6 -12 -31 -23 -55 -12 -24 -21 -49 -21 -55 0
-7 -3 -12 -7 -12 -5 0 -19 -17 -33 -38 -33 -49 -129 -143 -166 -162 -16 -8
-31 -17 -34 -20 -8 -8 -94 -46 -95 -41 0 2 -11 -2 -25 -9 -14 -7 -36 -15 -50
-17 -178 -29 -294 -13 -435 61 -74 38 -199 161 -242 236 -35 62 -79 172 -87
222 -16 89 -19 118 -19 183 -1 284 117 507 334 632 53 30 148 64 199 70 25 3
46 7 48 8 4 3 157 -4 192 -10z"/>
<path d="M8700 9074 c0 -1536 1 -1622 18 -1625 14 -4 471 -3 567 0 l30 1 0
1623 0 1622 -308 1 -307 1 0 -1623z"/>
<path d="M4739 9925 c-3 -2 -52 -6 -109 -10 -156 -8 -258 -27 -385 -72 -102
-36 -256 -113 -285 -143 -3 -3 -21 -17 -40 -31 -74 -55 -192 -185 -248 -274
-64 -102 -144 -313 -166 -440 -3 -16 -8 -41 -11 -55 -4 -20 -15 -150 -17 -215
0 -5 2 -59 5 -120 17 -325 141 -614 350 -820 152 -149 311 -237 542 -300 6 -1
12 -3 15 -5 11 -5 98 -20 140 -25 60 -7 287 -8 325 -2 17 3 50 9 75 12 63 10
70 11 120 25 217 56 416 181 578 364 17 20 32 40 32 44 0 5 9 18 20 29 30 33
107 178 135 254 l25 69 -335 0 -334 0 -22 -45 c-33 -66 -128 -157 -202 -192
-69 -34 -159 -58 -182 -49 -8 3 -16 2 -19 -2 -11 -18 -179 -3 -251 22 -130 44
-258 151 -313 262 -47 92 -88 239 -73 262 4 5 370 9 894 8 l887 0 1 -20 c0
-12 3 -30 5 -41 3 -11 7 -35 9 -52 14 -90 53 -209 110 -330 138 -293 379 -501
680 -588 95 -27 174 -37 290 -38 74 -1 192 9 216 17 8 3 25 7 39 10 77 13 241
86 325 144 28 19 89 75 137 124 l88 89 2 -173 3 -173 305 0 305 0 3 1217 2
1217 -187 1 c-104 1 -199 1 -213 0 -14 -1 -68 -2 -120 -3 l-95 -2 0 -163 c0
-123 -3 -162 -12 -162 -7 0 -13 3 -13 8 -1 20 -212 212 -234 212 -3 0 -23 10
-44 23 -50 31 -133 66 -212 88 -65 19 -97 25 -199 35 -30 3 -57 5 -60 6 -3 0
-8 0 -11 -1 -3 -1 -43 -4 -90 -6 -141 -7 -199 -19 -321 -66 -98 -38 -158 -69
-235 -125 -70 -49 -175 -150 -219 -209 -17 -22 -33 -42 -36 -45 -4 -3 -15 -21
-25 -40 -11 -19 -27 -47 -37 -61 -53 -79 -145 -353 -148 -440 -1 -27 -4 -21
-16 31 -65 286 -154 462 -319 627 -66 67 -235 193 -258 193 -3 0 -29 11 -58
24 -125 57 -300 101 -434 109 -28 2 -55 6 -61 10 -6 4 -12 5 -14 2z m51 -519
c153 -19 320 -124 399 -251 46 -73 78 -184 72 -252 -1 -10 -123 -13 -576 -13
l-576 0 6 42 c4 24 9 46 12 50 2 5 6 20 9 34 2 13 21 55 40 92 122 229 336
333 614 298z m2542 -57 c84 -26 187 -86 250 -145 41 -38 118 -136 118 -151 0
-4 9 -26 21 -50 21 -43 44 -117 57 -183 9 -45 8 -274 -1 -321 -3 -20 -11 -49
-17 -65 -6 -16 -11 -31 -10 -34 2 -11 -45 -126 -57 -138 -7 -7 -13 -17 -13
-22 0 -5 -22 -36 -50 -69 -82 -99 -223 -186 -333 -207 -133 -25 -199 -23 -315
6 -54 13 -122 42 -122 52 0 5 -5 8 -11 8 -40 0 -182 137 -235 227 -50 86 -71
143 -101 283 -10 46 -5 248 7 302 22 98 67 205 114 272 31 44 131 140 163 157
15 8 34 19 40 26 18 17 118 52 188 67 86 19 220 12 307 -15z"/>
<path d="M14248 9915 c-1 -1 -30 -5 -63 -9 -65 -6 -98 -12 -160 -27 -51 -13
-197 -60 -210 -68 -5 -3 -12 -6 -15 -6 -15 -2 -142 -73 -190 -105 -112 -77
-227 -193 -307 -310 -29 -44 -105 -185 -109 -205 -1 -5 -13 -41 -27 -80 -37
-100 -54 -180 -64 -295 -8 -102 -8 -210 1 -300 9 -91 13 -125 16 -125 1 0 4
-13 6 -30 3 -16 12 -50 20 -75 9 -25 17 -52 19 -60 20 -88 102 -247 184 -355
46 -60 188 -205 201 -205 4 0 18 -9 31 -21 77 -67 257 -150 413 -190 112 -29
131 -31 316 -34 158 -3 269 7 358 34 18 5 35 10 37 10 20 1 115 35 170 60 36
17 68 31 71 31 2 0 44 25 92 54 151 95 296 240 379 381 57 96 135 288 147 363
2 15 5 27 6 27 2 0 8 32 18 111 10 73 8 348 -3 394 -3 14 -8 41 -11 60 -5 27
-32 125 -58 205 -47 148 -185 353 -307 457 -24 21 -55 47 -69 59 -39 33 -161
106 -207 124 -24 10 -43 21 -43 26 0 5 -3 8 -7 7 -5 -1 -33 6 -63 17 -30 10
-59 20 -65 21 -5 2 -35 10 -65 18 -30 8 -71 17 -90 20 -19 3 -46 8 -60 11 -27
6 -286 15 -292 10z m232 -547 c8 -3 29 -8 45 -13 210 -56 380 -254 426 -498
21 -111 19 -295 -4 -402 -21 -94 -77 -218 -123 -274 -104 -126 -237 -205 -382
-228 -71 -11 -206 -7 -260 7 -125 34 -287 143 -327 220 -8 16 -20 34 -28 42
-18 18 -63 130 -83 208 -27 101 -24 368 4 477 12 45 30 99 40 120 11 21 27 54
37 73 29 55 153 171 225 209 101 54 177 70 305 66 61 -2 117 -5 125 -7z"/>
<path d="M277 9884 c-3 -3 -52 -6 -109 -6 l-103 1 0 -1215 c0 -802 3 -1214 10
-1215 6 0 144 -2 308 -2 l297 -2 0 45 c0 25 0 155 0 290 0 135 0 265 1 290 1
25 1 51 0 58 -2 22 -2 98 0 182 1 25 1 51 0 58 0 6 -1 20 -1 30 0 9 -1 42 -1
72 -1 30 -1 60 -1 65 6 85 7 117 1 126 -3 5 -3 30 1 55 4 24 3 47 -1 49 -4 3
-4 18 0 33 4 15 6 45 4 67 -2 22 -3 60 -2 85 1 25 1 51 0 58 -2 22 -2 33 0
452 l1 415 -33 2 c-54 2 -156 3 -257 3 -50 -1 -96 1 -101 4 -4 3 -11 3 -14 0z"/>
<path d="M9717 9884 c-3 -3 -91 -5 -196 -4 -105 0 -191 -1 -191 -4 0 -4 52
-130 75 -181 7 -16 32 -77 55 -135 23 -58 48 -121 57 -140 39 -91 153 -369
153 -375 0 -2 11 -28 24 -57 13 -29 45 -107 71 -173 27 -66 51 -127 56 -135
12 -24 54 -127 99 -240 23 -58 50 -123 59 -145 10 -22 26 -60 36 -85 10 -25
23 -58 31 -75 13 -31 83 -204 129 -315 14 -36 30 -74 35 -85 5 -11 24 -58 43
-105 39 -98 43 -73 -49 -260 -78 -158 -108 -215 -116 -218 -5 -2 -8 -8 -8 -13
0 -15 -123 -208 -208 -329 -165 -233 -365 -456 -573 -641 -40 -35 -77 -69 -83
-74 -6 -6 -47 -39 -91 -74 -44 -34 -89 -70 -100 -79 -11 -10 -41 -30 -65 -47
-25 -16 -47 -32 -50 -35 -9 -9 -130 -90 -135 -90 -2 0 -35 -19 -72 -42 -37
-24 -81 -51 -98 -61 -38 -23 -328 -167 -380 -189 -117 -50 -185 -76 -185 -71
0 3 -6 1 -12 -5 -28 -23 -462 -156 -547 -168 -19 -2 -38 -7 -42 -10 -5 -3 -23
-7 -41 -9 -38 -5 -73 -12 -96 -19 -9 -3 -42 -8 -72 -11 -30 -4 -57 -8 -60 -10
-3 -1 -36 -6 -73 -10 -37 -3 -78 -8 -90 -11 -73 -14 -628 -28 -651 -16 -5 3
-36 6 -70 8 -128 7 -217 18 -391 50 -71 13 -143 26 -160 29 -16 2 -95 23 -175
45 -149 41 -154 43 -180 53 -8 3 -58 20 -110 37 -221 76 -535 225 -748 358
-46 29 -86 52 -88 52 -3 0 -10 5 -17 10 -7 6 -61 44 -122 86 -284 196 -636
518 -805 735 -19 24 -41 51 -50 59 -9 8 -60 76 -114 150 -55 74 -103 139 -107
144 -9 10 -279 15 -285 5 -5 -9 29 -70 117 -209 44 -69 85 -134 92 -145 7 -11
15 -22 18 -25 3 -3 21 -27 39 -55 19 -27 40 -56 46 -65 55 -69 150 -187 159
-197 5 -6 28 -33 50 -60 22 -26 116 -125 210 -218 166 -167 294 -280 445 -393
41 -31 77 -58 80 -61 11 -13 101 -71 109 -71 5 0 11 -4 13 -8 3 -7 174 -122
182 -122 2 0 34 -18 70 -40 98 -59 460 -240 481 -240 3 0 24 -9 48 -19 59 -28
227 -91 256 -97 13 -3 33 -10 43 -15 11 -6 27 -12 36 -14 10 -2 57 -15 104
-30 48 -14 95 -28 105 -30 10 -2 59 -13 108 -25 104 -25 121 -29 155 -35 14
-2 50 -9 80 -15 30 -6 71 -12 90 -15 19 -2 46 -7 60 -10 46 -9 162 -22 285
-32 141 -12 800 -6 800 7 0 1 18 3 41 5 89 8 249 30 264 35 3 1 8 2 13 1 4 -1
26 3 50 8 23 6 56 12 72 15 17 3 55 11 85 17 30 6 64 12 75 14 42 7 293 78
409 116 66 22 126 41 131 43 6 1 15 4 20 7 6 4 64 28 130 54 190 75 469 215
641 321 110 67 160 98 164 103 3 4 25 19 50 36 47 31 281 204 290 214 3 4 34
31 70 61 36 30 80 68 99 85 50 44 321 314 321 320 0 2 12 17 28 33 15 16 45
50 67 76 22 26 50 60 63 75 13 14 61 76 107 137 201 266 380 567 510 854 77
171 81 180 128 300 57 144 65 164 64 170 -1 3 6 19 15 35 19 37 25 51 83 200
26 66 52 126 57 133 6 6 7 12 3 12 -4 0 -2 7 5 15 7 8 9 15 6 15 -4 0 0 12 8
28 8 15 60 142 116 282 55 140 105 264 110 275 5 11 41 101 80 200 39 99 75
189 80 200 5 11 11 27 12 35 2 8 5 17 9 20 3 3 13 28 23 55 10 28 24 64 32 80
7 17 36 89 64 160 27 72 55 138 60 147 6 10 10 22 10 28 0 5 12 35 26 65 14
31 24 61 22 67 -2 6 -64 9 -168 8 -91 0 -172 -1 -180 -1 -157 1 -295 0 -298
-3 -2 -2 -52 -136 -113 -297 -60 -162 -112 -301 -116 -309 -3 -8 -7 -19 -9
-25 -3 -11 -46 -125 -65 -170 -6 -16 -13 -34 -15 -40 -1 -5 -16 -46 -32 -90
-17 -44 -76 -201 -132 -350 -55 -148 -112 -300 -126 -338 -23 -59 -44 -80 -44
-43 0 7 -9 35 -19 62 -11 27 -43 112 -71 189 -69 188 -91 246 -100 270 -4 11
-17 47 -29 80 -12 33 -27 68 -32 77 -5 10 -9 25 -9 33 0 8 -4 23 -10 33 -5 9
-32 80 -60 157 -28 77 -57 154 -63 170 -7 17 -12 32 -12 35 0 3 -7 16 -15 30
-7 14 -12 25 -9 25 5 0 -25 85 -60 168 -6 12 -17 42 -25 67 -13 41 -58 164
-73 200 -3 8 -8 24 -10 35 -5 28 -39 43 -78 35 -22 -4 -215 -1 -224 4 -4 3
-11 3 -14 0z"/>
<path d="M12347 9883 c-2 -5 -4 -554 -4 -1220 l0 -1213 26 -1 c98 -4 574 -3
580 1 4 3 7 79 7 170 -1 91 2 173 7 183 4 9 4 17 0 17 -10 0 -9 362 1 378 4 7
4 12 -1 12 -10 0 -9 982 1 998 4 7 4 12 -1 12 -10 0 -9 492 1 508 4 7 4 12 -1
12 -4 0 -8 30 -8 67 l0 68 -150 2 c-82 1 -161 3 -175 3 -14 1 -78 1 -142 0
-65 -1 -122 1 -127 4 -5 4 -12 3 -14 -1z"/>
<path d="M11660 8128 c-25 -5 -51 -10 -57 -10 -7 -1 -13 -5 -13 -9 0 -3 -8 -9
-17 -11 -39 -10 -54 -21 -110 -77 -123 -123 -130 -338 -15 -476 102 -123 312
-165 467 -94 67 31 135 101 170 175 42 90 40 226 -6 315 -41 81 -122 149 -209
178 -49 15 -156 20 -210 9z"/>
</g>
</svg>
